  0
SECTION
  2
HEADER
  9
$ACADVER
  1
AC1009
  9
$INSBASE
 10
0
 20
0
 30
0
  9
$EXTMIN
 10
0
 20
0
  9
$EXTMAX
 10
841
 20
594
  9
$LIMMIN
 10
0
 20
0
  9
$LIMMAX
 10
841
 20
594
  9
$LTSCALE
 40
1
  0
ENDSEC
  0
SECTION
  2
TABLES
  0
TABLE
  2
LTYPE
 70
     9
  0
LTYPE
  2
CONTINUOUS
 70
    64
  3
実線
 72
    65
 73
     0
 40
0.0
  0
LTYPE
  2
DASHED1
 70
    64
  3
--  --  --  --  --  --  --  --  
 72
    65
 73
     2
 40
2.5
 49
1.25
 49
-1.25
  0
LTYPE
  2
DASHED2
 70
    64
  3
----    ----    ----    ----    
 72
    65
 73
     2
 40
5.0
 49
2.5
 49
-2.5
  0
LTYPE
  2
DASHED3
 70
    64
  3
------  ------  ------  ------  
 72
    65
 73
     2
 40
5.0
 49
3.75
 49
-1.25
  0
LTYPE
  2
CENTER1
 70
    64
  3
----- - ----- - ----- - ----- - 
 72
    65
 73
     4
 40
10.0
 49
6.25
 49
-1.25
 49
1.25
 49
-1.25
  0
LTYPE
  2
CENTER2
 70
    64
  3
----------  --  ----------  --  
 72
    65
 73
     4
 40
20.0
 49
12.5
 49
-2.5
 49
2.5
 49
-2.5
  0
LTYPE
  2
PHANTOM1
 70
    64
  3
--- - - --- - - --- - - --- - - 
 72
    65
 73
     6
 40
10.0
 49
3.25
 49
-1.25
 49
1.25
 49
-1.25
 49
1.25
 49
-1.25
  0
LTYPE
  2
PHANTOM2
 70
    64
  3
--------  -  -  --------  -  -  
 72
    65
 73
     6
 40
20.0
 49
10.0
 49
-2.5
 49
1.25
 49
-2.5
 49
1.25
 49
-2.5
  0
LTYPE
  2
DOT
 70
    64
  3
-   -   -   -   -   -   -   -   
 72
    65
 73
     2
 40
2.5
 49
0.625
 49
-1.875
  0
LTYPE
  2
DUMMY
 70
    64
  3
ダミー
 72
    65
 73
     0
 40
0.0
  0
LTYPE
  2
RAND1
 70
    64
  3
ランダム線1
 72
    65
 73
     4
 40
10.0
 49
1.0
 49
-2.0
 49
3.0
 49
-4.0
  0
LTYPE
  2
RAND2
 70
    64
  3
ランダム線2
 72
    65
 73
     4
 40
14.0
 49
2.0
 49
-3.0
 49
4.0
 49
-5.0
  0
LTYPE
  2
RAND3
 70
    64
  3
ランダム線3
 72
    65
 73
     4
 40
18.0
 49
3.0
 49
-4.0
 49
5.0
 49
-6.0
  0
LTYPE
  2
RAND4
 70
    64
  3
ランダム線4
 72
    65
 73
     4
 40
22.0
 49
4.0
 49
-5.0
 49
6.0
 49
-7.0
  0
LTYPE
  2
RAND5
 70
    64
  3
ランダム線5
 72
    65
 73
     4
 40
26.0
 49
5.0
 49
-6.0
 49
7.0
 49
-8.0
  0
LTYPE
  2
LONG1
 70
    64
  3
----------  --  ----------  --  
 72
    65
 73
     4
 40
40.0
 49
32.5
 49
-2.5
 49
2.5
 49
-2.5
  0
LTYPE
  2
LONG2
 70
    64
  3
--------  -  -  --------  -  -  
 72
    65
 73
     6
 40
40.0
 49
30.0
 49
-2.5
 49
1.25
 49
-2.5
 49
1.25
 49
-2.5
  0
LTYPE
  2
LONG3
 70
    64
  3
+++++++++++++++..+++++++++++++++
 72
    65
 73
     2
 40
40.0
 49
37.5
 49
-2.5
  0
LTYPE
  2
LONG4
 70
    64
  3
+++++++++++++++..+++++++++++++++
 72
    65
 73
     2
 40
80.0
 49
75.0
 49
-5.0
  0
LTYPE
  2
LONG5
 70
    64
  3
----------  --  ----------  --  
 72
    65
 73
     4
 40
60.0
 49
37.5
 49
-7.5
 49
7.5
 49
-7.5
  0
LTYPE
  2
dashed
 70
   64
  3
-------   -------------   ------
 72
   65
 73
    2
 40
7.5
 49
6
 49
-1.5
  0
LTYPE
  2
dashed_spaced
 70
   64
  3
----        --------        ----
 72
   65
 73
    2
 40
12
 49
6
 49
-6
  0
LTYPE
  2
long_dashed_dotted
 70
   64
  3
------------- --- --------------
 72
   65
 73
    4
 40
15.25
 49
12
 49
-1.5
 49
0.25
 49
-1.5
  0
LTYPE
  2
long_dashed_double-dotted
 70
   64
  3
----------- --- --- ------------
 72
   65
 73
    6
 40
17
 49
12
 49
-1.5
 49
0.25
 49
-1.5
 49
0.25
 49
-1.5
  0
LTYPE
  2
long_dashed_triplicate-dotted
 70
   64
  3
--------- --- --- --- ----------
 72
   65
 73
    8
 40
18.75
 49
12
 49
-1.5
 49
0.25
 49
-1.5
 49
0.25
 49
-1.5
 49
0.25
 49
-1.5
  0
LTYPE
  2
dotted
 70
   64
  3
   -       -       -       -    
 72
   65
 73
    2
 40
1.75
 49
0.25
 49
-1.5
  0
LTYPE
  2
chain
 70
   64
  3
-------------- -- --------------
 72
   65
 73
    4
 40
18.5
 49
12
 49
-1.5
 49
3.5
 49
-1.5
  0
LTYPE
  2
chain_double_dash
 70
   64
  3
------------ -- -- -------------
 72
   65
 73
    6
 40
23.5
 49
12
 49
-1.5
 49
3.5
 49
-1.5
 49
3.5
 49
-1.5
  0
LTYPE
  2
dashed_dotted
 70
   64
  3
-----------     -     ----------
 72
   65
 73
    4
 40
9.25
 49
6
 49
-1.5
 49
0.25
 49
-1.5
  0
LTYPE
  2
double-dashed_dotted
 70
   64
  3
------   -----------   -   -----
 72
   65
 73
    6
 40
16.75
 49
6
 49
-1.5
 49
6
 49
-1.5
 49
0.25
 49
-1.5
  0
LTYPE
  2
dashed_double-dotted
 70
   64
  3
---------    -    -    ---------
 72
   65
 73
    6
 40
11
 49
6
 49
-1.5
 49
0.25
 49
-1.5
 49
0.25
 49
-1.5
  0
LTYPE
  2
double-dashed_double-dotted
 70
   64
  3
-----   ---------   -   -   ----
 72
   65
 73
    8
 40
18.5
 49
6
 49
-1.5
 49
6
 49
-1.5
 49
0.25
 49
-1.5
 49
0.25
 49
-1.5
  0
LTYPE
  2
dashed_triplicate-dotted
 70
   64
  3
-------    -    -    -    ------
 72
   65
 73
    8
 40
12.75
 49
6
 49
-1.5
 49
0.25
 49
-1.5
 49
0.25
 49
-1.5
 49
0.25
 49
-1.5
  0
LTYPE
  2
double-dashed_triplicate-dotted
 70
   64
  3
-----  ---------  -  -  -  -----
 72
   65
 73
   10
 40
20.25
 49
6
 49
-1.5
 49
6
 49
-1.5
 49
0.25
 49
-1.5
 49
0.25
 49
-1.5
 49
0.25
 49
-1.5
  0
LTYPE
  2
undefined
 70
   64
  3
--------------------------------
 72
   65
 73
    0
 40
0
  0
LTYPE
  2
_
 70
   64
  3
                                
 72
   65
 73
    0
 40
0
  0
LTYPE
  2
__18
 70
   64
  3
                                
 72
   65
 73
    0
 40
0
  0
LTYPE
  2
__19
 70
   64
  3
                                
 72
   65
 73
    0
 40
0
  0
LTYPE
  2
__20
 70
   64
  3
                                
 72
   65
 73
    0
 40
0
  0
LTYPE
  2
__21
 70
   64
  3
                                
 72
   65
 73
    0
 40
0
  0
LTYPE
  2
__22
 70
   64
  3
                                
 72
   65
 73
    0
 40
0
  0
LTYPE
  2
__23
 70
   64
  3
                                
 72
   65
 73
    0
 40
0
  0
LTYPE
  2
__24
 70
   64
  3
                                
 72
   65
 73
    0
 40
0
  0
LTYPE
  2
__25
 70
   64
  3
                                
 72
   65
 73
    0
 40
0
  0
LTYPE
  2
__26
 70
   64
  3
                                
 72
   65
 73
    0
 40
0
  0
LTYPE
  2
__27
 70
   64
  3
                                
 72
   65
 73
    0
 40
0
  0
LTYPE
  2
__28
 70
   64
  3
                                
 72
   65
 73
    0
 40
0
  0
LTYPE
  2
__29
 70
   64
  3
                                
 72
   65
 73
    0
 40
0
  0
LTYPE
  2
__30
 70
   64
  3
                                
 72
   65
 73
    0
 40
0
  0
LTYPE
  2
__31
 70
   64
  3
                                
 72
   65
 73
    0
 40
0
  0
LTYPE
  2
__32
 70
   64
  3
                                
 72
   65
 73
    0
 40
0
  0
ENDTAB
  0
TABLE
  2
STYLE
  5
3
100
AcDbSymbolTable
 70
     1
  0
STYLE
  5
10
100
AcDbSymbolTableRecord
100
AcDbTextStyleTableRecord
  2
STANDARD
 70
     0
 40
0.0
 41
1.0
 50
0.0
 71
     0
 42
0.2
  3
txt
  4
bigfont.shx
  0
STYLE
  5
26
100
AcDbSymbolTableRecord
100
AcDbTextStyleTableRecord
  2
TATEGAKI
 70
    68
 40
0.0
 41
1.0
 50
0.0
 71
     0
 42
1.0
  3
txt
  4
bigfont.shx
  0
ENDTAB
  0
TABLE
  2
LAYER
 70
    2
  0
LAYER
  2
_0-0_
 70
   64
 62
    7
  6
CONTINUOUS
  0
LAYER
  2
ADD_LINE
 70
   64
 62
    7
  6
CONTINUOUS
  0
ENDTAB
  0
ENDSEC
  0
SECTION
  2
BLOCKS
  0
ENDSEC
  0
SECTION
  2
ENTITIES
  0
ARC
  8
_0-0_
  6
CONTINUOUS
 62
    7
 10
630.9977428249831
 20
338.66593236600709
 40
10
 50
99.985690837013052
 51
180
  0
LINE
  8
_0-0_
  6
CONTINUOUS
 62
    7
 10
605.9977428249831
 20
512.05905681280273
 11
655.9977428249831
 21
512.05905681280273
  0
LINE
  8
_0-0_
  6
CONTINUOUS
 62
    7
 10
605.9977428249831
 20
86.093785735569781
 11
655.9977428249831
 21
86.093785735569781
  0
LINE
  8
_0-0_
  6
CONTINUOUS
 62
    7
 10
603.39774282498308
 20
467.05905681280268
 11
603.39774282498308
 21
461.05905681280268
  0
LINE
  8
_0-0_
  6
CONTINUOUS
 62
    7
 10
603.39774282498308
 20
461.05905681280268
 11
605.9977428249831
 21
461.05905681280268
  0
LINE
  8
_0-0_
  6
CONTINUOUS
 62
    7
 10
603.39774282498308
 20
467.05905681280268
 11
605.9977428249831
 21
467.05905681280268
  0
LINE
  8
_0-0_
  6
CONTINUOUS
 62
    7
 10
603.39774282498308
 20
137.0779972938385
 11
603.39774282498308
 21
131.0779972938385
  0
LINE
  8
_0-0_
  6
CONTINUOUS
 62
    7
 10
605.9977428249831
 20
461.05905681280268
 11
605.9977428249831
 21
137.0779972938385
  0
LINE
  8
_0-0_
  6
CONTINUOUS
 62
    7
 10
603.39774282498308
 20
137.0779972938385
 11
605.9977428249831
 21
137.0779972938385
  0
LINE
  8
_0-0_
  6
CONTINUOUS
 62
    7
 10
603.39774282498308
 20
131.0779972938385
 11
605.9977428249831
 21
131.0779972938385
  0
LINE
  8
_0-0_
  6
CONTINUOUS
 62
    7
 10
632.35689456613363
 20
349.05905681280273
 11
629.263720581092
 21
348.51444326145167
  0
ARC
  8
_0-0_
  6
CONTINUOUS
 62
    7
 10
630.9977428249831
 20
259.45242347970838
 40
10
 50
180
 51
260.01593761346731
  0
LINE
  8
_0-0_
  6
CONTINUOUS
 62
    7
 10
632.35878535354709
 20
249.0590568128027
 11
629.26400049442179
 21
249.60386330416903
  0
LINE
  8
_0-0_
  6
CONTINUOUS
 62
    7
 10
655.9977428249831
 20
512.05905681280273
 11
655.9977428249831
 21
502.0590568128025
  0
LINE
  8
_0-0_
  6
CONTINUOUS
 62
    7
 10
655.9977428249831
 20
86.093785735569781
 11
655.9977428249831
 21
96.059056812802907
  0
CIRCLE
  8
_0-0_
  6
CONTINUOUS
 62
    7
 10
628.60136074667389
 20
484.45543889111178
 40
17.603617921690887
  0
CIRCLE
  8
_0-0_
  6
CONTINUOUS
 62
    7
 10
624.98131879852337
 20
447.86824499588061
 40
13.983575973540265
  0
CIRCLE
  8
_0-0_
  6
CONTINUOUS
 62
    7
 10
622.56572391972429
 20
417.31668792759916
 40
11.56798109474119
  0
CIRCLE
  8
_0-0_
  6
CONTINUOUS
 62
    7
 10
620.91866693317535
 20
390.82778272466566
 40
9.9209241081922918
  0
CIRCLE
  8
_0-0_
  6
CONTINUOUS
 62
    7
 10
619.79638259163971
 20
367.10821884981669
 40
8.7986397666566737
  0
CIRCLE
  8
_0-0_
  6
CONTINUOUS
 62
    7
 10
628.601360746674
 20
113.66267473449357
 40
17.603617921690887
  0
CIRCLE
  8
_0-0_
  6
CONTINUOUS
 62
    7
 10
624.98131879852337
 20
150.24986862972477
 40
13.983575973540265
  0
CIRCLE
  8
_0-0_
  6
CONTINUOUS
 62
    7
 10
622.56572391972429
 20
180.80142569800625
 40
11.56798109474119
  0
CIRCLE
  8
_0-0_
  6
CONTINUOUS
 62
    7
 10
620.91866693317547
 20
207.29033090093972
 40
9.9209241081922918
  0
CIRCLE
  8
_0-0_
  6
CONTINUOUS
 62
    7
 10
619.79638259163971
 20
231.00989477578869
 40
8.7986397666566737
  0
ARC
  8
_0-0_
  6
CONTINUOUS
 62
    7
 10
635.9977428249831
 20
339.05905681280273
 40
10
 50
0
 51
90
  0
LINE
  8
_0-0_
  6
CONTINUOUS
 62
    7
 10
632.35689456613363
 20
349.05905681280273
 11
635.9977428249831
 21
349.05905681280273
  0
ARC
  8
_0-0_
  6
CONTINUOUS
 62
    7
 10
635.9977428249831
 20
259.0589433906428
 40
10
 50
270
 51
0
  0
LINE
  8
_0-0_
  6
CONTINUOUS
 62
    7
 10
632.35690139461132
 20
249.0589433906428
 11
635.9977428249831
 21
249.0589433906428
  0
ARC
  8
_0-0_
  6
CONTINUOUS
 62
    7
 10
635.9977428249831
 20
339.05905681280273
 40
20
 50
0
 51
90
  0
LINE
  8
_0-0_
  6
CONTINUOUS
 62
    7
 10
655.9977428249831
 20
339.05905681280273
 11
655.9977428249831
 21
259.0589433906428
  0
ARC
  8
_0-0_
  6
CONTINUOUS
 62
    7
 10
635.9977428249831
 20
259.0589433906428
 40
20
 50
270
 51
0
  0
ARC
  8
_0-0_
  6
CONTINUOUS
 62
    7
 10
636.25043183809896
 20
362.05905681280273
 40
3
 50
175.64166396932438
 51
265.18535992010004
  0
ARC
  8
_0-0_
  6
CONTINUOUS
 62
    7
 10
1462.8662163223634
 20
299.05905681280262
 40
832.01306090949844
 50
165.87804983356812
 51
175.64166396932418
  0
ARC
  8
_0-0_
  6
CONTINUOUS
 62
    7
 10
636.25044048250504
 20
236.0589433906428
 40
3
 50
94.814804012810995
 51
184.3583438923828
  0
ARC
  8
_0-0_
  6
CONTINUOUS
 62
    7
 10
1462.8662163223634
 20
299.05905681280262
 40
832.01306090949844
 50
184.3583438923828
 51
194.12195016643187
  0
ARC
  8
_0-0_
  6
CONTINUOUS
 62
    7
 10
700.88313999799925
 20
338.66593236600709
 40
10
 50
99.985690837013052
 51
180
  0
LINE
  8
_0-0_
  6
CONTINUOUS
 62
    7
 10
675.88313999799925
 20
512.05905681280273
 11
725.88313999799925
 21
512.05905681280273
  0
LINE
  8
_0-0_
  6
CONTINUOUS
 62
    7
 10
675.88313999799925
 20
86.093785735569781
 11
725.88313999799925
 21
86.093785735569781
  0
LINE
  8
_0-0_
  6
CONTINUOUS
 62
    7
 10
673.28313999799934
 20
467.05905681280268
 11
673.28313999799934
 21
461.05905681280268
  0
LINE
  8
_0-0_
  6
CONTINUOUS
 62
    7
 10
673.28313999799934
 20
461.05905681280268
 11
675.88313999799925
 21
461.05905681280268
  0
LINE
  8
_0-0_
  6
CONTINUOUS
 62
    7
 10
673.28313999799934
 20
467.05905681280268
 11
675.88313999799925
 21
467.05905681280268
  0
LINE
  8
_0-0_
  6
CONTINUOUS
 62
    7
 10
673.28313999799934
 20
137.0779972938385
 11
673.28313999799934
 21
131.0779972938385
  0
LINE
  8
_0-0_
  6
CONTINUOUS
 62
    7
 10
673.28313999799934
 20
137.0779972938385
 11
675.88313999799925
 21
137.0779972938385
  0
LINE
  8
_0-0_
  6
CONTINUOUS
 62
    7
 10
673.28313999799934
 20
131.0779972938385
 11
675.88313999799925
 21
131.0779972938385
  0
LINE
  8
_0-0_
  6
CONTINUOUS
 62
    7
 10
702.24229173914989
 20
349.05905681280273
 11
699.14911775410826
 21
348.51444326145167
  0
ARC
  8
_0-0_
  6
CONTINUOUS
 62
    7
 10
700.88313999799925
 20
259.45242347970838
 40
10
 50
180
 51
260.01593761346731
  0
LINE
  8
_0-0_
  6
CONTINUOUS
 62
    7
 10
702.24418252656334
 20
249.0590568128027
 11
699.14939766743805
 21
249.60386330416903
  0
LINE
  8
_0-0_
  6
CONTINUOUS
 62
    7
 10
725.88313999799925
 20
512.05905681280273
 11
725.88313999799925
 21
502.0590568128025
  0
LINE
  8
_0-0_
  6
CONTINUOUS
 62
    7
 10
725.88313999799925
 20
86.093785735569781
 11
725.88313999799925
 21
96.059056812802907
  0
CIRCLE
  8
_0-0_
  6
CONTINUOUS
 62
    7
 10
698.48675791969014
 20
484.45543889111178
 40
17.603617921690887
  0
CIRCLE
  8
_0-0_
  6
CONTINUOUS
 62
    7
 10
694.86671597153963
 20
447.86824499588061
 40
13.983575973540265
  0
CIRCLE
  8
_0-0_
  6
CONTINUOUS
 62
    7
 10
692.45112109274055
 20
417.31668792759916
 40
11.56798109474119
  0
CIRCLE
  8
_0-0_
  6
CONTINUOUS
 62
    7
 10
690.80406410619161
 20
390.82778272466566
 40
9.9209241081922918
  0
CIRCLE
  8
_0-0_
  6
CONTINUOUS
 62
    7
 10
689.68177976465597
 20
367.10821884981669
 40
8.7986397666566737
  0
CIRCLE
  8
_0-0_
  6
CONTINUOUS
 62
    7
 10
698.48675791969026
 20
113.66267473449357
 40
17.603617921690887
  0
CIRCLE
  8
_0-0_
  6
CONTINUOUS
 62
    7
 10
694.86671597153963
 20
150.24986862972477
 40
13.983575973540265
  0
CIRCLE
  8
_0-0_
  6
CONTINUOUS
 62
    7
 10
692.45112109274055
 20
180.80142569800625
 40
11.56798109474119
  0
CIRCLE
  8
_0-0_
  6
CONTINUOUS
 62
    7
 10
690.80406410619161
 20
207.29033090093972
 40
9.9209241081922918
  0
CIRCLE
  8
_0-0_
  6
CONTINUOUS
 62
    7
 10
689.68177976465597
 20
231.00989477578869
 40
8.7986397666566737
  0
ARC
  8
_0-0_
  6
CONTINUOUS
 62
    7
 10
705.88313999799925
 20
339.05905681280273
 40
10
 50
0
 51
90
  0
LINE
  8
_0-0_
  6
CONTINUOUS
 62
    7
 10
702.24229173914989
 20
349.05905681280273
 11
705.88313999799925
 21
349.05905681280273
  0
ARC
  8
_0-0_
  6
CONTINUOUS
 62
    7
 10
705.88313999799925
 20
259.0589433906428
 40
10
 50
270
 51
0
  0
LINE
  8
_0-0_
  6
CONTINUOUS
 62
    7
 10
715.88313999799925
 20
339.05905681280273
 11
715.88313999799925
 21
259.0589433906428
  0
LINE
  8
_0-0_
  6
CONTINUOUS
 62
    7
 10
702.24229856762758
 20
249.0589433906428
 11
705.88313999799925
 21
249.0589433906428
  0
ARC
  8
_0-0_
  6
CONTINUOUS
 62
    7
 10
705.88313999799925
 20
339.05905681280273
 40
20
 50
0
 51
90
  0
ARC
  8
_0-0_
  6
CONTINUOUS
 62
    7
 10
705.88313999799925
 20
259.0589433906428
 40
20
 50
270
 51
0
  0
ARC
  8
_0-0_
  6
CONTINUOUS
 62
    7
 10
706.13582901111522
 20
362.05905681280273
 40
3
 50
175.64166396932438
 51
265.18535992010004
  0
ARC
  8
_0-0_
  6
CONTINUOUS
 62
    7
 10
1532.7516134953796
 20
299.05905681280262
 40
832.01306090949844
 50
165.87804983356812
 51
175.64166396932418
  0
ARC
  8
_0-0_
  6
CONTINUOUS
 62
    7
 10
706.13583765552129
 20
236.0589433906428
 40
3
 50
94.814804012810995
 51
184.3583438923828
  0
ARC
  8
_0-0_
  6
CONTINUOUS
 62
    7
 10
1532.7516134953796
 20
299.05905681280262
 40
832.01306090949844
 50
184.3583438923828
 51
194.12195016643187
  0
LINE
  8
_0-0_
  6
CONTINUOUS
 62
    7
 10
690.88313999799925
 20
338.66593236600709
 11
690.88313999799925
 21
259.45242347970838
  0
ARC
  8
_0-0_
  6
CONTINUOUS
 62
    7
 10
478.9977428249831
 20
299.05905681280268
 40
90
 50
239.89928954839035
 51
120.1007104516096
  0
ARC
  8
_0-0_
  6
CONTINUOUS
 62
    7
 10
355.9977428249831
 20
176.0590568128027
 40
90
 50
149.89928954839035
 51
30.100710451609643
  0
CIRCLE
  8
_0-0_
  6
CONTINUOUS
 62
    7
 10
352.46220891905034
 20
260.16818384754259
 40
1.7500000000000002
  0
CIRCLE
  8
_0-0_
  6
CONTINUOUS
 62
    7
 10
317.10686985972301
 20
295.52352290686991
 40
1.7500000000000002
  0
CIRCLE
  8
_0-0_
  6
CONTINUOUS
 62
    7
 10
359.53327673091587
 20
337.94992977806276
 40
1.7500000000000002
  0
CIRCLE
  8
_0-0_
  6
CONTINUOUS
 62
    7
 10
394.88861579024325
 20
302.59459071873544
 40
1.7500000000000002
  0
CIRCLE
  8
_0-0_
  6
CONTINUOUS
 62
    7
 10
417.49774282498304
 20
237.55905681280268
 40
1.5
  0
CIRCLE
  8
_0-0_
  6
CONTINUOUS
 62
    7
 10
417.4977428249831
 20
360.55905681280268
 40
1.5
  0
CIRCLE
  8
_0-0_
  6
CONTINUOUS
 62
    7
 10
294.4977428249831
 20
360.55905681280268
 40
1.5
  0
CIRCLE
  8
_0-0_
  6
CONTINUOUS
 62
    7
 10
294.4977428249831
 20
237.55905681280268
 40
1.5
  0
CIRCLE
  8
_0-0_
  6
CONTINUOUS
 62
    7
 10
539.10181922583967
 20
238.95498041194616
 40
1.5
  0
CIRCLE
  8
_0-0_
  6
CONTINUOUS
 62
    7
 10
539.10181922583967
 20
359.16313321365925
 40
1.5
  0
CIRCLE
  8
_0-0_
  6
CONTINUOUS
 62
    7
 10
416.10181922583961
 20
482.16313321365919
 40
1.5
  0
CIRCLE
  8
_0-0_
  6
CONTINUOUS
 62
    7
 10
295.89366642412653
 20
482.16313321365919
 40
1.5
  0
CIRCLE
  8
_0-0_
  6
CONTINUOUS
 62
    7
 10
172.89366642412667
 20
359.16313321365907
 40
1.5
  0
CIRCLE
  8
_0-0_
  6
CONTINUOUS
 62
    7
 10
172.89366642412659
 20
238.95498041194619
 40
1.5
  0
CIRCLE
  8
_0-0_
  6
CONTINUOUS
 62
    7
 10
295.89366642412653
 20
115.95498041194613
 40
1.5
  0
CIRCLE
  8
_0-0_
  6
CONTINUOUS
 62
    7
 10
416.10181922583961
 20
115.95498041194616
 40
1.5
  0
ARC
  8
_0-0_
  6
CONTINUOUS
 62
    7
 10
345.9977428249831
 20
101.72871307621011
 40
5
 50
262.33774433923383
 51
0
  0
ARC
  8
_0-0_
  6
CONTINUOUS
 62
    7
 10
365.9977428249831
 20
101.72871307621011
 40
5
 50
180
 51
277.66225566076604
  0
ARC
  8
_0-0_
  6
CONTINUOUS
 62
    7
 10
355.9977428249831
 20
176.0590568128027
 40
80.000000000000042
 50
277.66225566076604
 51
352.33774433923395
  0
ARC
  8
_0-0_
  6
CONTINUOUS
 62
    7
 10
430.32808656157567
 20
166.0590568128027
 40
5
 50
352.33774433923389
 51
90
  0
ARC
  8
_0-0_
  6
CONTINUOUS
 62
    7
 10
430.32808656157567
 20
186.0590568128027
 40
5
 50
270
 51
7.6622556607661174
  0
ARC
  8
_0-0_
  6
CONTINUOUS
 62
    7
 10
355.9977428249831
 20
176.0590568128027
 40
80.000000000000042
 50
7.6622556607660632
 51
82.33774433923395
  0
ARC
  8
_0-0_
  6
CONTINUOUS
 62
    7
 10
365.9977428249831
 20
250.38940054939527
 40
5
 50
82.337744339233964
 51
180
  0
ARC
  8
_0-0_
  6
CONTINUOUS
 62
    7
 10
345.9977428249831
 20
250.38940054939527
 40
5
 50
0
 51
97.662255660766135
  0
ARC
  8
_0-0_
  6
CONTINUOUS
 62
    7
 10
281.66739908839053
 20
186.0590568128027
 40
5
 50
172.33774433923386
 51
270
  0
ARC
  8
_0-0_
  6
CONTINUOUS
 62
    7
 10
355.9977428249831
 20
176.0590568128027
 40
80.000000000000042
 50
97.662255660766064
 51
172.33774433923395
  0
ARC
  8
_0-0_
  6
CONTINUOUS
 62
    7
 10
281.66739908839053
 20
166.0590568128027
 40
5
 50
90
 51
187.6622556607661
  0
ARC
  8
_0-0_
  6
CONTINUOUS
 62
    7
 10
355.9977428249831
 20
176.0590568128027
 40
80.000000000000042
 50
187.66225566076604
 51
262.33774433923395
  0
ARC
  8
_0-0_
  6
CONTINUOUS
 62
    7
 10
468.9977428249831
 20
224.72871307621016
 40
5
 50
262.33774433923395
 51
0
  0
ARC
  8
_0-0_
  6
CONTINUOUS
 62
    7
 10
488.9977428249831
 20
224.72871307621016
 40
5
 50
180
 51
277.6622556607661
  0
ARC
  8
_0-0_
  6
CONTINUOUS
 62
    7
 10
553.32808656157567
 20
289.05905681280268
 40
5
 50
352.33774433923395
 51
90
  0
ARC
  8
_0-0_
  6
CONTINUOUS
 62
    7
 10
478.9977428249831
 20
299.05905681280268
 40
80
 50
277.66225566076604
 51
352.33774433923395
  0
ARC
  8
_0-0_
  6
CONTINUOUS
 62
    7
 10
553.32808656157567
 20
309.05905681280268
 40
5
 50
270
 51
7.6622556607660543
  0
ARC
  8
_0-0_
  6
CONTINUOUS
 62
    7
 10
478.9977428249831
 20
299.05905681280268
 40
80
 50
7.6622556607660623
 51
82.337744339233935
  0
ARC
  8
_0-0_
  6
CONTINUOUS
 62
    7
 10
488.9977428249831
 20
373.38940054939524
 40
5
 50
82.337744339233893
 51
180
  0
ARC
  8
_0-0_
  6
CONTINUOUS
 62
    7
 10
468.9977428249831
 20
373.38940054939524
 40
5
 50
0
 51
97.662255660766021
  0
ARC
  8
_0-0_
  6
CONTINUOUS
 62
    7
 10
404.66739908839059
 20
309.05905681280268
 40
5
 50
172.33774433923397
 51
270
  0
ARC
  8
_0-0_
  6
CONTINUOUS
 62
    7
 10
478.9977428249831
 20
299.05905681280268
 40
80
 50
97.662255660766064
 51
172.33774433923395
  0
ARC
  8
_0-0_
  6
CONTINUOUS
 62
    7
 10
478.9977428249831
 20
299.05905681280268
 40
80
 50
187.66225566076604
 51
262.33774433923395
  0
ARC
  8
_0-0_
  6
CONTINUOUS
 62
    7
 10
404.66739908839059
 20
289.05905681280268
 40
5
 50
90
 51
187.66225566076599
  0
ARC
  8
_0-0_
  6
CONTINUOUS
 62
    7
 10
365.9977428249831
 20
347.72871307621016
 40
5
 50
180
 51
277.66225566076599
  0
ARC
  8
_0-0_
  6
CONTINUOUS
 62
    7
 10
345.9977428249831
 20
347.72871307621016
 40
5
 50
262.33774433923389
 51
0
  0
ARC
  8
_0-0_
  6
CONTINUOUS
 62
    7
 10
355.9977428249831
 20
422.05905681280268
 40
80
 50
277.66225566076604
 51
352.33774433923395
  0
ARC
  8
_0-0_
  6
CONTINUOUS
 62
    7
 10
430.32808656157561
 20
412.05905681280268
 40
5
 50
352.33774433923406
 51
90
  0
ARC
  8
_0-0_
  6
CONTINUOUS
 62
    7
 10
430.32808656157561
 20
432.05905681280268
 40
5
 50
270
 51
7.6622556607659646
  0
ARC
  8
_0-0_
  6
CONTINUOUS
 62
    7
 10
365.9977428249831
 20
496.38940054939519
 40
5
 50
82.337744339233964
 51
180
  0
ARC
  8
_0-0_
  6
CONTINUOUS
 62
    7
 10
355.9977428249831
 20
422.05905681280268
 40
80
 50
7.662255660766057
 51
82.337744339233935
  0
ARC
  8
_0-0_
  6
CONTINUOUS
 62
    7
 10
345.9977428249831
 20
496.38940054939519
 40
5
 50
0
 51
97.662255660765978
  0
ARC
  8
_0-0_
  6
CONTINUOUS
 62
    7
 10
281.66739908839053
 20
432.05905681280268
 40
5
 50
172.33774433923403
 51
270
  0
ARC
  8
_0-0_
  6
CONTINUOUS
 62
    7
 10
355.9977428249831
 20
422.05905681280268
 40
80
 50
97.662255660766064
 51
172.33774433923395
  0
ARC
  8
_0-0_
  6
CONTINUOUS
 62
    7
 10
355.9977428249831
 20
422.05905681280268
 40
80
 50
187.66225566076604
 51
262.33774433923395
  0
ARC
  8
_0-0_
  6
CONTINUOUS
 62
    7
 10
281.66739908839053
 20
412.05905681280268
 40
5
 50
90
 51
187.66225566076596
  0
ARC
  8
_0-0_
  6
CONTINUOUS
 62
    7
 10
242.9977428249831
 20
373.38940054939524
 40
5
 50
82.337744339234063
 51
180
  0
ARC
  8
_0-0_
  6
CONTINUOUS
 62
    7
 10
222.9977428249831
 20
373.38940054939524
 40
5
 50
0
 51
97.66225566076595
  0
ARC
  8
_0-0_
  6
CONTINUOUS
 62
    7
 10
158.66739908839053
 20
309.05905681280268
 40
5
 50
172.33774433923395
 51
270
  0
ARC
  8
_0-0_
  6
CONTINUOUS
 62
    7
 10
158.66739908839053
 20
289.05905681280268
 40
5
 50
90
 51
187.66225566076604
  0
ARC
  8
_0-0_
  6
CONTINUOUS
 62
    7
 10
222.9977428249831
 20
224.72871307621016
 40
5
 50
262.33774433923406
 51
0
  0
ARC
  8
_0-0_
  6
CONTINUOUS
 62
    7
 10
242.9977428249831
 20
224.72871307621016
 40
5
 50
180
 51
277.66225566076593
  0
ARC
  8
_0-0_
  6
CONTINUOUS
 62
    7
 10
307.32808656157561
 20
289.05905681280268
 40
5
 50
352.33774433923395
 51
90
  0
ARC
  8
_0-0_
  6
CONTINUOUS
 62
    7
 10
307.32808656157561
 20
309.05905681280268
 40
5
 50
270
 51
7.6622556607660285
  0
ARC
  8
_0-0_
  6
CONTINUOUS
 62
    7
 10
232.9977428249831
 20
299.05905681280268
 40
80
 50
7.6622556607660623
 51
82.33774433923395
  0
ARC
  8
_0-0_
  6
CONTINUOUS
 62
    7
 10
232.9977428249831
 20
299.05905681280268
 40
80
 50
277.66225566076604
 51
352.33774433923395
  0
ARC
  8
_0-0_
  6
CONTINUOUS
 62
    7
 10
232.9977428249831
 20
299.05905681280268
 40
80
 50
187.66225566076604
 51
262.33774433923395
  0
ARC
  8
_0-0_
  6
CONTINUOUS
 62
    7
 10
232.9977428249831
 20
299.05905681280268
 40
80
 50
97.662255660766064
 51
172.33774433923395
  0
CIRCLE
  8
_0-0_
  6
CONTINUOUS
 62
    7
 10
355.9977428249831
 20
299.05905681280273
 40
20
  0
CIRCLE
  8
_0-0_
  6
CONTINUOUS
 62
    7
 10
478.9977428249831
 20
299.05905681280268
 40
4
  0
CIRCLE
  8
_0-0_
  6
CONTINUOUS
 62
    7
 10
355.9977428249831
 20
176.05905681280268
 40
4
  0
CIRCLE
  8
_0-0_
  6
CONTINUOUS
 62
    7
 10
232.9977428249831
 20
299.05905681280273
 40
4
  0
CIRCLE
  8
_0-0_
  6
CONTINUOUS
 62
    7
 10
355.9977428249831
 20
422.05905681280268
 40
4
  0
ARC
  8
_0-0_
  6
CONTINUOUS
 62
    7
 10
372.15323724638659
 20
412.05905681280268
 40
5
 50
90
 51
148.243136140703
  0
ARC
  8
_0-0_
  6
CONTINUOUS
 62
    7
 10
365.9977428249831
 20
405.90356239139919
 40
5
 50
121.75686385929725
 51
180
  0
ARC
  8
_0-0_
  6
CONTINUOUS
 62
    7
 10
345.9977428249831
 20
405.90356239139919
 40
5
 50
0
 51
58.243136140703008
  0
ARC
  8
_0-0_
  6
CONTINUOUS
 62
    7
 10
339.84224840357956
 20
412.05905681280268
 40
5
 50
31.756863859297013
 51
90
  0
ARC
  8
_0-0_
  6
CONTINUOUS
 62
    7
 10
339.84224840357956
 20
432.05905681280268
 40
5
 50
270
 51
328.24313614070297
  0
ARC
  8
_0-0_
  6
CONTINUOUS
 62
    7
 10
345.9977428249831
 20
438.21455123420616
 40
5
 50
301.75686385929725
 51
0
  0
ARC
  8
_0-0_
  6
CONTINUOUS
 62
    7
 10
365.9977428249831
 20
438.21455123420616
 40
5
 50
180
 51
238.24313614070277
  0
ARC
  8
_0-0_
  6
CONTINUOUS
 62
    7
 10
372.15323724638659
 20
432.05905681280268
 40
5
 50
211.75686385929699
 51
270
  0
LINE
  8
_0-0_
  6
CONTINUOUS
 62
    7
 10
281.66739908839053
 20
417.05905681280268
 11
340.617072989537
 21
417.05905681280268
  0
LINE
  8
_0-0_
  6
CONTINUOUS
 62
    7
 10
339.84224840357956
 20
427.05905681280268
 11
281.66739908839053
 21
427.05905681280268
  0
ARC
  8
_0-0_
  6
CONTINUOUS
 62
    7
 10
355.9977428249831
 20
422.05905681280268
 40
14
 50
121.75686385929701
 51
148.24313614070283
  0
LINE
  8
_0-0_
  6
CONTINUOUS
 62
    7
 10
350.9977428249831
 20
496.38940054939519
 11
350.9977428249831
 21
438.21455123420616
  0
LINE
  8
_0-0_
  6
CONTINUOUS
 62
    7
 10
360.9977428249831
 20
496.38940054939519
 11
360.9977428249831
 21
438.21455123420616
  0
ARC
  8
_0-0_
  6
CONTINUOUS
 62
    7
 10
355.9977428249831
 20
422.05905681280268
 40
14
 50
28.508956275024925
 51
58.243136140702979
  0
LINE
  8
_0-0_
  6
CONTINUOUS
 62
    7
 10
430.32808656157561
 20
427.05905681280268
 11
372.15323724638659
 21
427.05905681280268
  0
LINE
  8
_0-0_
  6
CONTINUOUS
 62
    7
 10
371.3614454873707
 20
417.05905681280268
 11
430.32808656157561
 21
417.05905681280268
  0
ARC
  8
_0-0_
  6
CONTINUOUS
 62
    7
 10
355.9977428249831
 20
422.05905681280268
 40
14
 50
301.75686385929702
 51
328.2431361407028
  0
LINE
  8
_0-0_
  6
CONTINUOUS
 62
    7
 10
360.9977428249831
 20
405.90356239139919
 11
360.9977428249831
 21
347.72871307621016
  0
ARC
  8
_0-0_
  6
CONTINUOUS
 62
    7
 10
355.9977428249831
 20
422.05905681280268
 40
13.999999999999996
 50
211.75686385929716
 51
238.24313614070285
  0
ARC
  8
_0-0_
  6
CONTINUOUS
 62
    7
 10
495.15323724638665
 20
289.05905681280268
 40
5
 50
90
 51
148.24313614070291
  0
ARC
  8
_0-0_
  6
CONTINUOUS
 62
    7
 10
488.9977428249831
 20
282.90356239139919
 40
5
 50
121.75686385929716
 51
180
  0
ARC
  8
_0-0_
  6
CONTINUOUS
 62
    7
 10
468.9977428249831
 20
282.90356239139919
 40
5
 50
0
 51
58.243136140702851
  0
ARC
  8
_0-0_
  6
CONTINUOUS
 62
    7
 10
462.84224840357956
 20
289.05905681280268
 40
5
 50
31.756863859297116
 51
90
  0
ARC
  8
_0-0_
  6
CONTINUOUS
 62
    7
 10
462.84224840357956
 20
309.05905681280268
 40
5
 50
270
 51
328.24313614070285
  0
ARC
  8
_0-0_
  6
CONTINUOUS
 62
    7
 10
468.9977428249831
 20
315.21455123420622
 40
5
 50
301.75686385929708
 51
0
  0
ARC
  8
_0-0_
  6
CONTINUOUS
 62
    7
 10
488.9977428249831
 20
315.21455123420622
 40
5
 50
180
 51
238.24313614070277
  0
ARC
  8
_0-0_
  6
CONTINUOUS
 62
    7
 10
495.15323724638665
 20
309.05905681280268
 40
5
 50
211.75686385929708
 51
270
  0
LINE
  8
_0-0_
  6
CONTINUOUS
 62
    7
 10
473.9977428249831
 20
315.21455123420622
 11
473.9977428249831
 21
373.38940054939524
  0
ARC
  8
_0-0_
  6
CONTINUOUS
 62
    7
 10
478.9977428249831
 20
299.05905681280268
 40
14.000000000000001
 50
121.75686385929714
 51
148.24313614070291
  0
ARC
  8
_0-0_
  6
CONTINUOUS
 62
    7
 10
478.9977428249831
 20
299.05905681280268
 40
14.000000000000001
 50
211.75686385929711
 51
238.24313614070285
  0
ARC
  8
_0-0_
  6
CONTINUOUS
 62
    7
 10
478.9977428249831
 20
299.05905681280268
 40
14.000000000000001
 50
301.75686385929714
 51
328.24313614070285
  0
ARC
  8
_0-0_
  6
CONTINUOUS
 62
    7
 10
478.9977428249831
 20
299.05905681280268
 40
14.000000000000001
 50
31.756863859297109
 51
58.243136140702887
  0
LINE
  8
_0-0_
  6
CONTINUOUS
 62
    7
 10
483.9977428249831
 20
315.21455123420622
 11
483.9977428249831
 21
373.38940054939524
  0
LINE
  8
_0-0_
  6
CONTINUOUS
 62
    7
 10
495.15323724638665
 20
304.05905681280268
 11
553.32808656157567
 21
304.05905681280268
  0
LINE
  8
_0-0_
  6
CONTINUOUS
 62
    7
 10
495.15323724638665
 20
294.05905681280268
 11
553.32808656157567
 21
294.05905681280268
  0
LINE
  8
_0-0_
  6
CONTINUOUS
 62
    7
 10
483.9977428249831
 20
224.72871307621016
 11
483.9977428249831
 21
282.90356239139919
  0
LINE
  8
_0-0_
  6
CONTINUOUS
 62
    7
 10
473.9977428249831
 20
224.72871307621016
 11
473.9977428249831
 21
282.90356239139919
  0
LINE
  8
_0-0_
  6
CONTINUOUS
 62
    7
 10
404.66739908839059
 20
294.05905681280268
 11
462.84224840357956
 21
294.05905681280268
  0
LINE
  8
_0-0_
  6
CONTINUOUS
 62
    7
 10
404.66739908839059
 20
304.05905681280268
 11
462.84224840357956
 21
304.05905681280268
  0
ARC
  8
_0-0_
  6
CONTINUOUS
 62
    7
 10
345.9977428249831
 20
192.21455123420622
 40
5
 50
301.75686385929714
 51
0
  0
ARC
  8
_0-0_
  6
CONTINUOUS
 62
    7
 10
339.84224840357956
 20
186.0590568128027
 40
5
 50
270
 51
328.24313614070285
  0
ARC
  8
_0-0_
  6
CONTINUOUS
 62
    7
 10
339.84224840357956
 20
166.0590568128027
 40
5
 50
31.756863859297148
 51
90
  0
ARC
  8
_0-0_
  6
CONTINUOUS
 62
    7
 10
345.9977428249831
 20
159.90356239139919
 40
5
 50
0
 51
58.243136140702851
  0
ARC
  8
_0-0_
  6
CONTINUOUS
 62
    7
 10
365.9977428249831
 20
159.90356239139919
 40
5
 50
121.75686385929714
 51
180
  0
ARC
  8
_0-0_
  6
CONTINUOUS
 62
    7
 10
372.15323724638659
 20
166.0590568128027
 40
5
 50
90
 51
148.24313614070285
  0
ARC
  8
_0-0_
  6
CONTINUOUS
 62
    7
 10
372.15323724638659
 20
186.0590568128027
 40
5
 50
211.75686385929719
 51
270
  0
ARC
  8
_0-0_
  6
CONTINUOUS
 62
    7
 10
365.9977428249831
 20
192.21455123420622
 40
5
 50
180
 51
238.24313614070288
  0
ARC
  8
_0-0_
  6
CONTINUOUS
 62
    7
 10
355.9977428249831
 20
176.0590568128027
 40
14.000000000000001
 50
121.75686385929714
 51
148.24313614070291
  0
ARC
  8
_0-0_
  6
CONTINUOUS
 62
    7
 10
355.9977428249831
 20
176.0590568128027
 40
14.000000000000001
 50
211.75686385929708
 51
238.24313614070285
  0
ARC
  8
_0-0_
  6
CONTINUOUS
 62
    7
 10
355.9977428249831
 20
176.0590568128027
 40
14.000000000000001
 50
301.75686385929714
 51
328.24313614070291
  0
ARC
  8
_0-0_
  6
CONTINUOUS
 62
    7
 10
355.9977428249831
 20
176.0590568128027
 40
14.000000000000001
 50
31.756863859297109
 51
58.243136140702866
  0
LINE
  8
_0-0_
  6
CONTINUOUS
 62
    7
 10
360.9977428249831
 20
250.38940054939527
 11
360.9977428249831
 21
192.21455123420622
  0
LINE
  8
_0-0_
  6
CONTINUOUS
 62
    7
 10
350.9977428249831
 20
250.38940054939527
 11
350.9977428249831
 21
192.21455123420622
  0
LINE
  8
_0-0_
  6
CONTINUOUS
 62
    7
 10
281.66739908839053
 20
181.0590568128027
 11
339.84224840357956
 21
181.0590568128027
  0
LINE
  8
_0-0_
  6
CONTINUOUS
 62
    7
 10
281.66739908839053
 20
171.0590568128027
 11
339.84224840357956
 21
171.0590568128027
  0
LINE
  8
_0-0_
  6
CONTINUOUS
 62
    7
 10
350.9977428249831
 20
159.90356239139919
 11
350.9977428249831
 21
101.72871307621011
  0
LINE
  8
_0-0_
  6
CONTINUOUS
 62
    7
 10
360.9977428249831
 20
159.90356239139919
 11
360.9977428249831
 21
101.72871307621011
  0
LINE
  8
_0-0_
  6
CONTINUOUS
 62
    7
 10
372.15323724638659
 20
171.0590568128027
 11
430.32808656157567
 21
171.0590568128027
  0
LINE
  8
_0-0_
  6
CONTINUOUS
 62
    7
 10
372.15323724638659
 20
181.0590568128027
 11
430.32808656157567
 21
181.0590568128027
  0
ARC
  8
_0-0_
  6
CONTINUOUS
 62
    7
 10
242.9977428249831
 20
315.21455123420622
 40
5
 50
180
 51
238.24313614070297
  0
ARC
  8
_0-0_
  6
CONTINUOUS
 62
    7
 10
222.9977428249831
 20
315.21455123420622
 40
5
 50
301.75686385929702
 51
0
  0
ARC
  8
_0-0_
  6
CONTINUOUS
 62
    7
 10
216.84224840357958
 20
309.05905681280268
 40
5
 50
270
 51
328.24313614070274
  0
ARC
  8
_0-0_
  6
CONTINUOUS
 62
    7
 10
216.84224840357958
 20
289.05905681280268
 40
5
 50
31.756863859297268
 51
90
  0
ARC
  8
_0-0_
  6
CONTINUOUS
 62
    7
 10
222.9977428249831
 20
282.90356239139919
 40
5
 50
0
 51
58.243136140702993
  0
ARC
  8
_0-0_
  6
CONTINUOUS
 62
    7
 10
242.9977428249831
 20
282.90356239139919
 40
5
 50
121.75686385929701
 51
180
  0
ARC
  8
_0-0_
  6
CONTINUOUS
 62
    7
 10
249.15323724638662
 20
289.05905681280268
 40
5
 50
90
 51
148.24313614070271
  0
ARC
  8
_0-0_
  6
CONTINUOUS
 62
    7
 10
249.15323724638662
 20
309.05905681280268
 40
5
 50
211.75686385929731
 51
270
  0
LINE
  8
_0-0_
  6
CONTINUOUS
 62
    7
 10
249.15323724638662
 20
304.05905681280268
 11
307.32808656157561
 21
304.05905681280268
  0
ARC
  8
_0-0_
  6
CONTINUOUS
 62
    7
 10
232.9977428249831
 20
299.05905681280268
 40
14
 50
31.756863859297027
 51
58.24313614070283
  0
ARC
  8
_0-0_
  6
CONTINUOUS
 62
    7
 10
232.9977428249831
 20
299.05905681280268
 40
14
 50
121.75686385929719
 51
148.24313614070297
  0
ARC
  8
_0-0_
  6
CONTINUOUS
 62
    7
 10
232.9977428249831
 20
299.05905681280268
 40
14
 50
211.75686385929705
 51
238.24313614070283
  0
ARC
  8
_0-0_
  6
CONTINUOUS
 62
    7
 10
232.9977428249831
 20
299.05905681280268
 40
14
 50
301.75686385929714
 51
328.24313614070297
  0
LINE
  8
_0-0_
  6
CONTINUOUS
 62
    7
 10
227.9977428249831
 20
373.38940054939524
 11
227.9977428249831
 21
315.21455123420622
  0
LINE
  8
_0-0_
  6
CONTINUOUS
 62
    7
 10
158.66739908839053
 20
304.05905681280268
 11
216.84224840357958
 21
304.05905681280268
  0
LINE
  8
_0-0_
  6
CONTINUOUS
 62
    7
 10
158.66739908839053
 20
294.05905681280268
 11
216.84224840357958
 21
294.05905681280268
  0
LINE
  8
_0-0_
  6
CONTINUOUS
 62
    7
 10
227.9977428249831
 20
282.90356239139919
 11
227.9977428249831
 21
224.72871307621016
  0
LINE
  8
_0-0_
  6
CONTINUOUS
 62
    7
 10
237.9977428249831
 20
282.90356239139919
 11
237.9977428249831
 21
224.72871307621016
  0
LINE
  8
_0-0_
  6
CONTINUOUS
 62
    7
 10
249.15323724638662
 20
294.05905681280268
 11
307.32808656157561
 21
294.05905681280268
  0
LINE
  8
_0-0_
  6
CONTINUOUS
 62
    7
 10
237.9977428249831
 20
373.38940054939524
 11
237.9977428249831
 21
315.21455123420622
  0
LINE
  8
_0-0_
  6
CONTINUOUS
 62
    7
 10
350.9977428249831
 20
405.90356239139919
 11
350.9977428249831
 21
347.72871307621016
  0
CIRCLE
  8
_0-0_
  6
CONTINUOUS
 62
    7
 10
363.06881063684863
 20
325.92911449789147
 40
1.5
  0
CIRCLE
  8
_0-0_
  6
CONTINUOUS
 62
    7
 10
348.92667501311763
 20
272.18899912771382
 40
1.5
  0
CIRCLE
  8
_0-0_
  6
CONTINUOUS
 62
    7
 10
66.669717347276048
 20
121.96033069815294
 40
1.25
  0
ARC
  8
_0-0_
  6
CONTINUOUS
 62
    7
 10
77.169717347276048
 20
178.46033069815297
 40
3
 50
0
 51
90
  0
LINE
  8
_0-0_
  6
CONTINUOUS
 62
    7
 10
23.169717347276048
 20
181.46033069815297
 11
77.169717347276048
 21
181.46033069815297
  0
ARC
  8
_0-0_
  6
CONTINUOUS
 62
    7
 10
23.169717347276048
 20
178.46033069815297
 40
3
 50
90
 51
180
  0
ARC
  8
_0-0_
  6
CONTINUOUS
 62
    7
 10
23.169717347276048
 20
114.46033069815294
 40
3
 50
180
 51
270
  0
LINE
  8
_0-0_
  6
CONTINUOUS
 62
    7
 10
77.169717347276048
 20
111.46033069815294
 11
23.169717347276048
 21
111.46033069815294
  0
ARC
  8
_0-0_
  6
CONTINUOUS
 62
    7
 10
77.169717347276048
 20
114.46033069815294
 40
3
 50
270
 51
0
  0
CIRCLE
  8
_0-0_
  6
CONTINUOUS
 62
    7
 10
34.669717347276048
 20
161.96033069815297
 40
1.5
  0
CIRCLE
  8
_0-0_
  6
CONTINUOUS
 62
    7
 10
65.669717347276048
 20
161.96033069815297
 40
1.5
  0
CIRCLE
  8
_0-0_
  6
CONTINUOUS
 62
    7
 10
65.669717347276048
 20
130.96033069815294
 40
1.5
  0
CIRCLE
  8
_0-0_
  6
CONTINUOUS
 62
    7
 10
34.669717347276048
 20
130.96033069815294
 40
1.5
  0
CIRCLE
  8
_0-0_
  6
CONTINUOUS
 62
    7
 10
25.169717347276048
 20
176.46033069815297
 40
1.25
  0
CIRCLE
  8
_0-0_
  6
CONTINUOUS
 62
    7
 10
75.169717347276048
 20
176.46033069815297
 40
1.25
  0
CIRCLE
  8
_0-0_
  6
CONTINUOUS
 62
    7
 10
25.169717347276048
 20
116.46033069815294
 40
1.25
  0
CIRCLE
  8
_0-0_
  6
CONTINUOUS
 62
    7
 10
75.169717347276048
 20
116.46033069815294
 40
1.25
  0
CIRCLE
  8
_0-0_
  6
CONTINUOUS
 62
    7
 10
33.669717347276048
 20
121.96033069815294
 40
1.25
  0
CIRCLE
  8
_0-0_
  6
CONTINUOUS
 62
    7
 10
66.669717347276048
 20
170.96033069815297
 40
1.25
  0
CIRCLE
  8
_0-0_
  6
CONTINUOUS
 62
    7
 10
33.669717347276048
 20
170.96033069815297
 40
1.25
  0
CIRCLE
  8
_0-0_
  6
CONTINUOUS
 62
    7
 10
36.169717347276161
 20
170.46033069815297
 40
1.5
  0
CIRCLE
  8
_0-0_
  6
CONTINUOUS
 62
    7
 10
64.169717347276048
 20
122.46033069815288
 40
1.5
  0
LINE
  8
_0-0_
  6
CONTINUOUS
 62
    7
 10
80.169717347276048
 20
168.46033069815297
 11
80.169717347276048
 21
178.46033069815297
  0
ARC
  8
_0-0_
  6
CONTINUOUS
 62
    7
 10
71.669717347276048
 20
164.80532514325466
 40
2
 50
100.78429786756223
 51
180
  0
LINE
  8
_0-0_
  6
CONTINUOUS
 62
    7
 10
80.169717347276048
 20
168.46033069815297
 11
71.295493131496073
 21
166.7700022760996
  0
ARC
  8
_0-0_
  6
CONTINUOUS
 62
    7
 10
71.669717347276048
 20
153.11533625305122
 40
2
 50
180
 51
259.21570213243779
  0
LINE
  8
_0-0_
  6
CONTINUOUS
 62
    7
 10
71.295493131496073
 20
151.15065912020628
 11
80.169717347276048
 21
149.46033069815294
  0
LINE
  8
_0-0_
  6
CONTINUOUS
 62
    7
 10
69.669717347276048
 20
164.80532514325466
 11
69.669717347276048
 21
153.11533625305122
  0
ARC
  8
_0-0_
  6
CONTINUOUS
 62
    7
 10
28.669717347276048
 20
128.11533625305122
 40
2
 50
280.7842978675622
 51
0
  0
LINE
  8
_0-0_
  6
CONTINUOUS
 62
    7
 10
20.169717347276048
 20
124.46033069815294
 11
29.043941563056023
 21
126.15065912020628
  0
ARC
  8
_0-0_
  6
CONTINUOUS
 62
    7
 10
28.669717347276048
 20
139.80532514325466
 40
2
 50
0
 51
79.215702132437797
  0
LINE
  8
_0-0_
  6
CONTINUOUS
 62
    7
 10
29.043941563056023
 20
141.7700022760996
 11
20.169717347276048
 21
143.46033069815294
  0
LINE
  8
_0-0_
  6
CONTINUOUS
 62
    7
 10
30.669717347276048
 20
128.11533625305122
 11
30.669717347276048
 21
139.80532514325466
  0
LINE
  8
_0-0_
  6
CONTINUOUS
 62
    7
 10
20.169717347276048
 20
114.46033069815294
 11
20.169717347276048
 21
124.46033069815294
  0
ARC
  8
_0-0_
  6
CONTINUOUS
 62
    7
 10
28.669717347276048
 20
164.80532514325466
 40
1.9999999999999993
 50
0
 51
79.215702132437769
  0
LINE
  8
_0-0_
  6
CONTINUOUS
 62
    7
 10
20.169717347276048
 20
168.46033069815297
 11
29.043941563056023
 21
166.7700022760996
  0
ARC
  8
_0-0_
  6
CONTINUOUS
 62
    7
 10
28.669717347276048
 20
153.11533625305122
 40
1.9999999999999993
 50
280.7842978675622
 51
0
  0
LINE
  8
_0-0_
  6
CONTINUOUS
 62
    7
 10
29.043941563056023
 20
151.15065912020628
 11
20.169717347276048
 21
149.46033069815294
  0
LINE
  8
_0-0_
  6
CONTINUOUS
 62
    7
 10
30.669717347276048
 20
164.80532514325466
 11
30.669717347276048
 21
153.11533625305122
  0
ARC
  8
_0-0_
  6
CONTINUOUS
 62
    7
 10
71.669717347276048
 20
128.11533625305122
 40
2
 50
180
 51
259.21570213243779
  0
LINE
  8
_0-0_
  6
CONTINUOUS
 62
    7
 10
80.169717347276048
 20
124.46033069815294
 11
71.295493131496073
 21
126.15065912020628
  0
ARC
  8
_0-0_
  6
CONTINUOUS
 62
    7
 10
71.669717347276048
 20
139.80532514325466
 40
2
 50
100.7842978675622
 51
180
  0
LINE
  8
_0-0_
  6
CONTINUOUS
 62
    7
 10
71.295493131496073
 20
141.7700022760996
 11
80.169717347276048
 21
143.46033069815294
  0
LINE
  8
_0-0_
  6
CONTINUOUS
 62
    7
 10
69.669717347276048
 20
128.11533625305122
 11
69.669717347276048
 21
139.80532514325466
  0
LINE
  8
_0-0_
  6
CONTINUOUS
 62
    7
 10
20.169717347276048
 20
143.46033069815294
 11
20.169717347276048
 21
149.46033069815294
  0
LINE
  8
_0-0_
  6
CONTINUOUS
 62
    7
 10
20.169717347276048
 20
168.46033069815297
 11
20.169717347276048
 21
178.46033069815297
  0
LINE
  8
_0-0_
  6
CONTINUOUS
 62
    7
 10
80.169717347276048
 20
114.46033069815294
 11
80.169717347276048
 21
124.46033069815294
  0
LINE
  8
_0-0_
  6
CONTINUOUS
 62
    7
 10
80.169717347276048
 20
143.46033069815294
 11
80.169717347276048
 21
149.46033069815294
  0
CIRCLE
  8
_0-0_
  6
CONTINUOUS
 62
    7
 10
64.147424353645476
 20
427.15778292745221
 40
1.25
  0
ARC
  8
_0-0_
  6
CONTINUOUS
 62
    7
 10
74.647424353645476
 20
483.65778292745221
 40
3
 50
0
 51
90
  0
LINE
  8
_0-0_
  6
CONTINUOUS
 62
    7
 10
20.647424353645476
 20
486.65778292745221
 11
74.647424353645476
 21
486.65778292745221
  0
ARC
  8
_0-0_
  6
CONTINUOUS
 62
    7
 10
20.647424353645476
 20
483.65778292745221
 40
3
 50
90
 51
180
  0
ARC
  8
_0-0_
  6
CONTINUOUS
 62
    7
 10
20.647424353645476
 20
419.65778292745221
 40
3
 50
180
 51
270
  0
LINE
  8
_0-0_
  6
CONTINUOUS
 62
    7
 10
74.647424353645476
 20
416.65778292745221
 11
20.647424353645476
 21
416.65778292745221
  0
ARC
  8
_0-0_
  6
CONTINUOUS
 62
    7
 10
74.647424353645476
 20
419.65778292745221
 40
3
 50
270
 51
0
  0
CIRCLE
  8
_0-0_
  6
CONTINUOUS
 62
    7
 10
32.147424353645476
 20
467.15778292745221
 40
1.5
  0
CIRCLE
  8
_0-0_
  6
CONTINUOUS
 62
    7
 10
63.147424353645476
 20
467.15778292745221
 40
1.5
  0
CIRCLE
  8
_0-0_
  6
CONTINUOUS
 62
    7
 10
63.147424353645476
 20
436.15778292745221
 40
1.5
  0
CIRCLE
  8
_0-0_
  6
CONTINUOUS
 62
    7
 10
32.147424353645476
 20
436.15778292745221
 40
1.5
  0
CIRCLE
  8
_0-0_
  6
CONTINUOUS
 62
    7
 10
22.647424353645476
 20
481.65778292745221
 40
1.25
  0
CIRCLE
  8
_0-0_
  6
CONTINUOUS
 62
    7
 10
72.647424353645476
 20
481.65778292745221
 40
1.25
  0
CIRCLE
  8
_0-0_
  6
CONTINUOUS
 62
    7
 10
22.647424353645476
 20
421.65778292745221
 40
1.25
  0
CIRCLE
  8
_0-0_
  6
CONTINUOUS
 62
    7
 10
72.647424353645476
 20
421.65778292745221
 40
1.25
  0
CIRCLE
  8
_0-0_
  6
CONTINUOUS
 62
    7
 10
31.147424353645476
 20
427.15778292745221
 40
1.25
  0
CIRCLE
  8
_0-0_
  6
CONTINUOUS
 62
    7
 10
64.147424353645476
 20
476.15778292745221
 40
1.25
  0
CIRCLE
  8
_0-0_
  6
CONTINUOUS
 62
    7
 10
31.147424353645476
 20
476.15778292745221
 40
1.25
  0
CIRCLE
  8
_0-0_
  6
CONTINUOUS
 62
    7
 10
33.64742435364559
 20
475.65778292745221
 40
1.5
  0
CIRCLE
  8
_0-0_
  6
CONTINUOUS
 62
    7
 10
61.647424353645476
 20
427.65778292745221
 40
1.5
  0
LINE
  8
_0-0_
  6
CONTINUOUS
 62
    7
 10
77.647424353645476
 20
473.65778292745221
 11
77.647424353645476
 21
483.65778292745221
  0
ARC
  8
_0-0_
  6
CONTINUOUS
 62
    7
 10
69.147424353645476
 20
470.00277737255396
 40
2
 50
100.78429786756223
 51
180
  0
LINE
  8
_0-0_
  6
CONTINUOUS
 62
    7
 10
77.647424353645476
 20
473.65778292745221
 11
68.773200137865501
 21
471.9674545053989
  0
ARC
  8
_0-0_
  6
CONTINUOUS
 62
    7
 10
69.147424353645476
 20
458.31278848235052
 40
2
 50
180
 51
259.21570213243779
  0
LINE
  8
_0-0_
  6
CONTINUOUS
 62
    7
 10
68.773200137865501
 20
456.34811134950558
 11
77.647424353645476
 21
454.65778292745221
  0
LINE
  8
_0-0_
  6
CONTINUOUS
 62
    7
 10
67.147424353645476
 20
470.00277737255396
 11
67.147424353645476
 21
458.31278848235052
  0
ARC
  8
_0-0_
  6
CONTINUOUS
 62
    7
 10
26.147424353645476
 20
433.31278848235052
 40
2
 50
280.7842978675622
 51
0
  0
LINE
  8
_0-0_
  6
CONTINUOUS
 62
    7
 10
17.647424353645476
 20
429.65778292745221
 11
26.521648569425451
 21
431.34811134950558
  0
ARC
  8
_0-0_
  6
CONTINUOUS
 62
    7
 10
26.147424353645476
 20
445.00277737255396
 40
2
 50
0
 51
79.215702132437797
  0
LINE
  8
_0-0_
  6
CONTINUOUS
 62
    7
 10
26.521648569425451
 20
446.9674545053989
 11
17.647424353645476
 21
448.65778292745221
  0
LINE
  8
_0-0_
  6
CONTINUOUS
 62
    7
 10
28.147424353645476
 20
433.31278848235052
 11
28.147424353645476
 21
445.00277737255396
  0
LINE
  8
_0-0_
  6
CONTINUOUS
 62
    7
 10
17.647424353645476
 20
419.65778292745221
 11
17.647424353645476
 21
429.65778292745221
  0
ARC
  8
_0-0_
  6
CONTINUOUS
 62
    7
 10
26.147424353645476
 20
470.00277737255396
 40
1.9999999999999993
 50
0
 51
79.215702132437769
  0
LINE
  8
_0-0_
  6
CONTINUOUS
 62
    7
 10
17.647424353645476
 20
473.65778292745221
 11
26.521648569425451
 21
471.9674545053989
  0
ARC
  8
_0-0_
  6
CONTINUOUS
 62
    7
 10
26.147424353645476
 20
458.31278848235052
 40
1.9999999999999993
 50
280.7842978675622
 51
0
  0
LINE
  8
_0-0_
  6
CONTINUOUS
 62
    7
 10
26.521648569425451
 20
456.34811134950558
 11
17.647424353645476
 21
454.65778292745221
  0
LINE
  8
_0-0_
  6
CONTINUOUS
 62
    7
 10
28.147424353645476
 20
470.00277737255396
 11
28.147424353645476
 21
458.31278848235052
  0
ARC
  8
_0-0_
  6
CONTINUOUS
 62
    7
 10
69.147424353645476
 20
433.31278848235052
 40
2
 50
180
 51
259.21570213243779
  0
LINE
  8
_0-0_
  6
CONTINUOUS
 62
    7
 10
77.647424353645476
 20
429.65778292745221
 11
68.773200137865501
 21
431.34811134950558
  0
ARC
  8
_0-0_
  6
CONTINUOUS
 62
    7
 10
69.147424353645476
 20
445.00277737255396
 40
2
 50
100.7842978675622
 51
180
  0
LINE
  8
_0-0_
  6
CONTINUOUS
 62
    7
 10
68.773200137865501
 20
446.9674545053989
 11
77.647424353645476
 21
448.65778292745221
  0
LINE
  8
_0-0_
  6
CONTINUOUS
 62
    7
 10
67.147424353645476
 20
433.31278848235052
 11
67.147424353645476
 21
445.00277737255396
  0
LINE
  8
_0-0_
  6
CONTINUOUS
 62
    7
 10
17.647424353645476
 20
448.65778292745221
 11
17.647424353645476
 21
454.65778292745221
  0
LINE
  8
_0-0_
  6
CONTINUOUS
 62
    7
 10
17.647424353645476
 20
473.65778292745221
 11
17.647424353645476
 21
483.65778292745221
  0
LINE
  8
_0-0_
  6
CONTINUOUS
 62
    7
 10
77.647424353645476
 20
419.65778292745221
 11
77.647424353645476
 21
429.65778292745221
  0
LINE
  8
_0-0_
  6
CONTINUOUS
 62
    7
 10
77.647424353645476
 20
448.65778292745221
 11
77.647424353645476
 21
454.65778292745221
  0
CIRCLE
  8
_0-0_
  6
CONTINUOUS
 62
    7
 10
-212.04365844890219
 20
413.28517146248412
 40
1.25
  0
ARC
  8
_0-0_
  6
CONTINUOUS
 62
    7
 10
-201.54365844890219
 20
469.78517146248407
 40
3
 50
0
 51
90
  0
LINE
  8
_0-0_
  6
CONTINUOUS
 62
    7
 10
-255.54365844890219
 20
472.78517146248407
 11
-201.54365844890219
 21
472.78517146248407
  0
ARC
  8
_0-0_
  6
CONTINUOUS
 62
    7
 10
-255.54365844890219
 20
469.78517146248407
 40
3
 50
90
 51
180
  0
ARC
  8
_0-0_
  6
CONTINUOUS
 62
    7
 10
-255.54365844890219
 20
405.78517146248412
 40
3
 50
180
 51
270
  0
LINE
  8
_0-0_
  6
CONTINUOUS
 62
    7
 10
-201.54365844890219
 20
402.78517146248412
 11
-255.54365844890219
 21
402.78517146248412
  0
ARC
  8
_0-0_
  6
CONTINUOUS
 62
    7
 10
-201.54365844890219
 20
405.78517146248412
 40
3
 50
270
 51
0
  0
CIRCLE
  8
_0-0_
  6
CONTINUOUS
 62
    7
 10
-244.04365844890219
 20
453.28517146248407
 40
1.5
  0
CIRCLE
  8
_0-0_
  6
CONTINUOUS
 62
    7
 10
-213.04365844890219
 20
453.28517146248407
 40
1.5
  0
CIRCLE
  8
_0-0_
  6
CONTINUOUS
 62
    7
 10
-213.04365844890219
 20
422.28517146248407
 40
1.5
  0
CIRCLE
  8
_0-0_
  6
CONTINUOUS
 62
    7
 10
-244.04365844890219
 20
422.28517146248407
 40
1.5
  0
CIRCLE
  8
_0-0_
  6
CONTINUOUS
 62
    7
 10
-253.54365844890219
 20
467.78517146248407
 40
1.25
  0
CIRCLE
  8
_0-0_
  6
CONTINUOUS
 62
    7
 10
-203.54365844890219
 20
467.78517146248407
 40
1.25
  0
CIRCLE
  8
_0-0_
  6
CONTINUOUS
 62
    7
 10
-253.54365844890219
 20
407.78517146248412
 40
1.25
  0
CIRCLE
  8
_0-0_
  6
CONTINUOUS
 62
    7
 10
-203.54365844890219
 20
407.78517146248412
 40
1.25
  0
CIRCLE
  8
_0-0_
  6
CONTINUOUS
 62
    7
 10
-245.04365844890219
 20
413.28517146248412
 40
1.25
  0
CIRCLE
  8
_0-0_
  6
CONTINUOUS
 62
    7
 10
-212.04365844890219
 20
462.28517146248407
 40
1.25
  0
CIRCLE
  8
_0-0_
  6
CONTINUOUS
 62
    7
 10
-245.04365844890219
 20
462.28517146248407
 40
1.25
  0
CIRCLE
  8
_0-0_
  6
CONTINUOUS
 62
    7
 10
-242.54365844890219
 20
461.78517146248407
 40
1.5
  0
CIRCLE
  8
_0-0_
  6
CONTINUOUS
 62
    7
 10
-214.54365844890219
 20
413.78517146248407
 40
1.5
  0
LINE
  8
_0-0_
  6
CONTINUOUS
 62
    7
 10
-198.54365844890219
 20
459.78517146248407
 11
-198.54365844890219
 21
469.78517146248407
  0
ARC
  8
_0-0_
  6
CONTINUOUS
 62
    7
 10
-207.04365844890219
 20
456.13016590758581
 40
2
 50
100.78429786756223
 51
180
  0
LINE
  8
_0-0_
  6
CONTINUOUS
 62
    7
 10
-198.54365844890219
 20
459.78517146248407
 11
-207.41788266468222
 21
458.09484304043076
  0
ARC
  8
_0-0_
  6
CONTINUOUS
 62
    7
 10
-207.04365844890219
 20
444.44017701738238
 40
2
 50
180
 51
259.21570213243779
  0
LINE
  8
_0-0_
  6
CONTINUOUS
 62
    7
 10
-207.41788266468222
 20
442.47549988453744
 11
-198.54365844890219
 21
440.78517146248407
  0
LINE
  8
_0-0_
  6
CONTINUOUS
 62
    7
 10
-209.04365844890219
 20
456.13016590758581
 11
-209.04365844890219
 21
444.44017701738238
  0
ARC
  8
_0-0_
  6
CONTINUOUS
 62
    7
 10
-250.04365844890219
 20
419.44017701738238
 40
2
 50
280.7842978675622
 51
0
  0
LINE
  8
_0-0_
  6
CONTINUOUS
 62
    7
 10
-258.54365844890219
 20
415.78517146248407
 11
-249.66943423312227
 21
417.47549988453744
  0
ARC
  8
_0-0_
  6
CONTINUOUS
 62
    7
 10
-250.04365844890219
 20
431.13016590758581
 40
2
 50
0
 51
79.215702132437797
  0
LINE
  8
_0-0_
  6
CONTINUOUS
 62
    7
 10
-249.66943423312227
 20
433.09484304043076
 11
-258.54365844890219
 21
434.78517146248407
  0
LINE
  8
_0-0_
  6
CONTINUOUS
 62
    7
 10
-248.04365844890219
 20
419.44017701738238
 11
-248.04365844890219
 21
431.13016590758581
  0
LINE
  8
_0-0_
  6
CONTINUOUS
 62
    7
 10
-258.54365844890219
 20
405.78517146248412
 11
-258.54365844890219
 21
415.78517146248407
  0
ARC
  8
_0-0_
  6
CONTINUOUS
 62
    7
 10
-250.04365844890219
 20
456.13016590758581
 40
1.9999999999999993
 50
0
 51
79.215702132437769
  0
LINE
  8
_0-0_
  6
CONTINUOUS
 62
    7
 10
-258.54365844890219
 20
459.78517146248407
 11
-249.66943423312227
 21
458.09484304043076
  0
ARC
  8
_0-0_
  6
CONTINUOUS
 62
    7
 10
-250.04365844890219
 20
444.44017701738238
 40
1.9999999999999993
 50
280.7842978675622
 51
0
  0
LINE
  8
_0-0_
  6
CONTINUOUS
 62
    7
 10
-249.66943423312227
 20
442.47549988453744
 11
-258.54365844890219
 21
440.78517146248407
  0
LINE
  8
_0-0_
  6
CONTINUOUS
 62
    7
 10
-248.04365844890219
 20
456.13016590758581
 11
-248.04365844890219
 21
444.44017701738238
  0
ARC
  8
_0-0_
  6
CONTINUOUS
 62
    7
 10
-207.04365844890219
 20
419.44017701738238
 40
2
 50
180
 51
259.21570213243779
  0
LINE
  8
_0-0_
  6
CONTINUOUS
 62
    7
 10
-198.54365844890219
 20
415.78517146248407
 11
-207.41788266468222
 21
417.47549988453744
  0
ARC
  8
_0-0_
  6
CONTINUOUS
 62
    7
 10
-207.04365844890219
 20
431.13016590758581
 40
2
 50
100.7842978675622
 51
180
  0
LINE
  8
_0-0_
  6
CONTINUOUS
 62
    7
 10
-207.41788266468222
 20
433.09484304043076
 11
-198.54365844890219
 21
434.78517146248407
  0
LINE
  8
_0-0_
  6
CONTINUOUS
 62
    7
 10
-209.04365844890219
 20
419.44017701738238
 11
-209.04365844890219
 21
431.13016590758581
  0
LINE
  8
_0-0_
  6
CONTINUOUS
 62
    7
 10
-258.54365844890219
 20
434.78517146248407
 11
-258.54365844890219
 21
440.78517146248407
  0
LINE
  8
_0-0_
  6
CONTINUOUS
 62
    7
 10
-258.54365844890219
 20
459.78517146248407
 11
-258.54365844890219
 21
469.78517146248407
  0
LINE
  8
_0-0_
  6
CONTINUOUS
 62
    7
 10
-198.54365844890219
 20
405.78517146248412
 11
-198.54365844890219
 21
415.78517146248407
  0
LINE
  8
_0-0_
  6
CONTINUOUS
 62
    7
 10
-198.54365844890219
 20
434.78517146248407
 11
-198.54365844890219
 21
440.78517146248407
  0
CIRCLE
  8
_0-0_
  6
CONTINUOUS
 62
    7
 10
-205.10735271641817
 20
137.72466190834401
 40
1.25
  0
ARC
  8
_0-0_
  6
CONTINUOUS
 62
    7
 10
-194.60735271641817
 20
194.22466190834404
 40
3
 50
0
 51
90
  0
LINE
  8
_0-0_
  6
CONTINUOUS
 62
    7
 10
-248.60735271641817
 20
197.22466190834404
 11
-194.60735271641817
 21
197.22466190834404
  0
ARC
  8
_0-0_
  6
CONTINUOUS
 62
    7
 10
-248.60735271641817
 20
194.22466190834404
 40
3
 50
90
 51
180
  0
ARC
  8
_0-0_
  6
CONTINUOUS
 62
    7
 10
-248.60735271641817
 20
130.22466190834401
 40
3
 50
180
 51
270
  0
LINE
  8
_0-0_
  6
CONTINUOUS
 62
    7
 10
-194.60735271641817
 20
127.22466190834401
 11
-248.60735271641817
 21
127.22466190834401
  0
ARC
  8
_0-0_
  6
CONTINUOUS
 62
    7
 10
-194.60735271641817
 20
130.22466190834401
 40
3
 50
270
 51
0
  0
CIRCLE
  8
_0-0_
  6
CONTINUOUS
 62
    7
 10
-237.10735271641817
 20
177.72466190834404
 40
1.5
  0
CIRCLE
  8
_0-0_
  6
CONTINUOUS
 62
    7
 10
-206.10735271641817
 20
177.72466190834404
 40
1.5
  0
CIRCLE
  8
_0-0_
  6
CONTINUOUS
 62
    7
 10
-206.10735271641817
 20
146.72466190834401
 40
1.5
  0
CIRCLE
  8
_0-0_
  6
CONTINUOUS
 62
    7
 10
-237.10735271641817
 20
146.72466190834401
 40
1.5
  0
CIRCLE
  8
_0-0_
  6
CONTINUOUS
 62
    7
 10
-246.60735271641817
 20
192.22466190834404
 40
1.25
  0
CIRCLE
  8
_0-0_
  6
CONTINUOUS
 62
    7
 10
-196.60735271641817
 20
192.22466190834404
 40
1.25
  0
CIRCLE
  8
_0-0_
  6
CONTINUOUS
 62
    7
 10
-246.60735271641817
 20
132.22466190834401
 40
1.25
  0
CIRCLE
  8
_0-0_
  6
CONTINUOUS
 62
    7
 10
-196.60735271641817
 20
132.22466190834401
 40
1.25
  0
CIRCLE
  8
_0-0_
  6
CONTINUOUS
 62
    7
 10
-238.10735271641817
 20
137.72466190834401
 40
1.25
  0
CIRCLE
  8
_0-0_
  6
CONTINUOUS
 62
    7
 10
-205.10735271641817
 20
186.72466190834404
 40
1.25
  0
CIRCLE
  8
_0-0_
  6
CONTINUOUS
 62
    7
 10
-238.10735271641817
 20
186.72466190834404
 40
1.25
  0
CIRCLE
  8
_0-0_
  6
CONTINUOUS
 62
    7
 10
-235.60735271641817
 20
186.22466190834404
 40
1.5
  0
CIRCLE
  8
_0-0_
  6
CONTINUOUS
 62
    7
 10
-207.60735271641817
 20
138.22466190834396
 40
1.5
  0
LINE
  8
_0-0_
  6
CONTINUOUS
 62
    7
 10
-191.60735271641817
 20
184.22466190834404
 11
-191.60735271641817
 21
194.22466190834404
  0
ARC
  8
_0-0_
  6
CONTINUOUS
 62
    7
 10
-200.10735271641817
 20
180.56965635344573
 40
2
 50
100.78429786756223
 51
180
  0
LINE
  8
_0-0_
  6
CONTINUOUS
 62
    7
 10
-191.60735271641817
 20
184.22466190834404
 11
-200.4815769321982
 21
182.53433348629067
  0
ARC
  8
_0-0_
  6
CONTINUOUS
 62
    7
 10
-200.10735271641817
 20
168.87966746324229
 40
2
 50
180
 51
259.21570213243779
  0
LINE
  8
_0-0_
  6
CONTINUOUS
 62
    7
 10
-200.4815769321982
 20
166.91499033039735
 11
-191.60735271641817
 21
165.22466190834404
  0
LINE
  8
_0-0_
  6
CONTINUOUS
 62
    7
 10
-202.10735271641817
 20
180.56965635344573
 11
-202.10735271641817
 21
168.87966746324229
  0
ARC
  8
_0-0_
  6
CONTINUOUS
 62
    7
 10
-243.10735271641817
 20
143.87966746324229
 40
2
 50
280.7842978675622
 51
0
  0
LINE
  8
_0-0_
  6
CONTINUOUS
 62
    7
 10
-251.60735271641817
 20
140.22466190834401
 11
-242.73312850063825
 21
141.91499033039735
  0
ARC
  8
_0-0_
  6
CONTINUOUS
 62
    7
 10
-243.10735271641817
 20
155.56965635344573
 40
2
 50
0
 51
79.215702132437797
  0
LINE
  8
_0-0_
  6
CONTINUOUS
 62
    7
 10
-242.73312850063825
 20
157.53433348629067
 11
-251.60735271641817
 21
159.22466190834404
  0
LINE
  8
_0-0_
  6
CONTINUOUS
 62
    7
 10
-241.10735271641817
 20
143.87966746324229
 11
-241.10735271641817
 21
155.56965635344573
  0
LINE
  8
_0-0_
  6
CONTINUOUS
 62
    7
 10
-251.60735271641817
 20
130.22466190834401
 11
-251.60735271641817
 21
140.22466190834401
  0
ARC
  8
_0-0_
  6
CONTINUOUS
 62
    7
 10
-243.10735271641817
 20
180.56965635344573
 40
1.9999999999999993
 50
0
 51
79.215702132437769
  0
LINE
  8
_0-0_
  6
CONTINUOUS
 62
    7
 10
-251.60735271641817
 20
184.22466190834404
 11
-242.73312850063825
 21
182.53433348629067
  0
ARC
  8
_0-0_
  6
CONTINUOUS
 62
    7
 10
-243.10735271641817
 20
168.87966746324229
 40
1.9999999999999993
 50
280.7842978675622
 51
0
  0
LINE
  8
_0-0_
  6
CONTINUOUS
 62
    7
 10
-242.73312850063825
 20
166.91499033039735
 11
-251.60735271641817
 21
165.22466190834404
  0
LINE
  8
_0-0_
  6
CONTINUOUS
 62
    7
 10
-241.10735271641817
 20
180.56965635344573
 11
-241.10735271641817
 21
168.87966746324229
  0
ARC
  8
_0-0_
  6
CONTINUOUS
 62
    7
 10
-200.10735271641817
 20
143.87966746324229
 40
2
 50
180
 51
259.21570213243779
  0
LINE
  8
_0-0_
  6
CONTINUOUS
 62
    7
 10
-191.60735271641817
 20
140.22466190834401
 11
-200.4815769321982
 21
141.91499033039735
  0
ARC
  8
_0-0_
  6
CONTINUOUS
 62
    7
 10
-200.10735271641817
 20
155.56965635344573
 40
2
 50
100.7842978675622
 51
180
  0
LINE
  8
_0-0_
  6
CONTINUOUS
 62
    7
 10
-200.4815769321982
 20
157.53433348629067
 11
-191.60735271641817
 21
159.22466190834404
  0
LINE
  8
_0-0_
  6
CONTINUOUS
 62
    7
 10
-202.10735271641817
 20
143.87966746324229
 11
-202.10735271641817
 21
155.56965635344573
  0
LINE
  8
_0-0_
  6
CONTINUOUS
 62
    7
 10
-251.60735271641817
 20
159.22466190834404
 11
-251.60735271641817
 21
165.22466190834404
  0
LINE
  8
_0-0_
  6
CONTINUOUS
 62
    7
 10
-251.60735271641817
 20
184.22466190834404
 11
-251.60735271641817
 21
194.22466190834404
  0
LINE
  8
_0-0_
  6
CONTINUOUS
 62
    7
 10
-191.60735271641817
 20
130.22466190834401
 11
-191.60735271641817
 21
140.22466190834401
  0
LINE
  8
_0-0_
  6
CONTINUOUS
 62
    7
 10
-191.60735271641817
 20
159.22466190834404
 11
-191.60735271641817
 21
165.22466190834404
  0
CIRCLE
  8
_0-0_
  6
CONTINUOUS
 62
    7
 10
236.92449441733978
 20
414.54631795929941
 40
1.25
  0
ARC
  8
_0-0_
  6
CONTINUOUS
 62
    7
 10
247.42449441733978
 20
471.04631795929935
 40
3
 50
0
 51
90
  0
LINE
  8
_0-0_
  6
CONTINUOUS
 62
    7
 10
193.42449441733978
 20
474.04631795929935
 11
247.42449441733978
 21
474.04631795929935
  0
ARC
  8
_0-0_
  6
CONTINUOUS
 62
    7
 10
193.42449441733978
 20
471.04631795929935
 40
3
 50
90
 51
180
  0
ARC
  8
_0-0_
  6
CONTINUOUS
 62
    7
 10
193.42449441733978
 20
407.04631795929941
 40
3
 50
180
 51
270
  0
LINE
  8
_0-0_
  6
CONTINUOUS
 62
    7
 10
247.42449441733978
 20
404.04631795929941
 11
193.42449441733978
 21
404.04631795929941
  0
ARC
  8
_0-0_
  6
CONTINUOUS
 62
    7
 10
247.42449441733978
 20
407.04631795929941
 40
3
 50
270
 51
0
  0
CIRCLE
  8
_0-0_
  6
CONTINUOUS
 62
    7
 10
204.92449441733978
 20
454.54631795929935
 40
1.5
  0
CIRCLE
  8
_0-0_
  6
CONTINUOUS
 62
    7
 10
235.92449441733978
 20
454.54631795929935
 40
1.5
  0
CIRCLE
  8
_0-0_
  6
CONTINUOUS
 62
    7
 10
235.92449441733978
 20
423.54631795929935
 40
1.5
  0
CIRCLE
  8
_0-0_
  6
CONTINUOUS
 62
    7
 10
204.92449441733978
 20
423.54631795929935
 40
1.5
  0
CIRCLE
  8
_0-0_
  6
CONTINUOUS
 62
    7
 10
195.42449441733978
 20
469.04631795929935
 40
1.25
  0
CIRCLE
  8
_0-0_
  6
CONTINUOUS
 62
    7
 10
245.42449441733978
 20
469.04631795929935
 40
1.25
  0
CIRCLE
  8
_0-0_
  6
CONTINUOUS
 62
    7
 10
195.42449441733978
 20
409.04631795929941
 40
1.25
  0
CIRCLE
  8
_0-0_
  6
CONTINUOUS
 62
    7
 10
245.42449441733978
 20
409.04631795929941
 40
1.25
  0
CIRCLE
  8
_0-0_
  6
CONTINUOUS
 62
    7
 10
203.92449441733978
 20
414.54631795929941
 40
1.25
  0
CIRCLE
  8
_0-0_
  6
CONTINUOUS
 62
    7
 10
236.92449441733978
 20
463.54631795929935
 40
1.25
  0
CIRCLE
  8
_0-0_
  6
CONTINUOUS
 62
    7
 10
203.92449441733978
 20
463.54631795929935
 40
1.25
  0
CIRCLE
  8
_0-0_
  6
CONTINUOUS
 62
    7
 10
206.4244944173399
 20
463.04631795929935
 40
1.5
  0
CIRCLE
  8
_0-0_
  6
CONTINUOUS
 62
    7
 10
234.42449441733978
 20
415.04631795929935
 40
1.5
  0
LINE
  8
_0-0_
  6
CONTINUOUS
 62
    7
 10
250.42449441733978
 20
461.04631795929935
 11
250.42449441733978
 21
471.04631795929935
  0
ARC
  8
_0-0_
  6
CONTINUOUS
 62
    7
 10
241.92449441733978
 20
457.3913124044011
 40
2
 50
100.78429786756223
 51
180
  0
LINE
  8
_0-0_
  6
CONTINUOUS
 62
    7
 10
250.42449441733978
 20
461.04631795929935
 11
241.55027020155981
 21
459.35598953724604
  0
ARC
  8
_0-0_
  6
CONTINUOUS
 62
    7
 10
241.92449441733978
 20
445.70132351419766
 40
2
 50
180
 51
259.21570213243779
  0
LINE
  8
_0-0_
  6
CONTINUOUS
 62
    7
 10
241.55027020155981
 20
443.73664638135272
 11
250.42449441733978
 21
442.04631795929935
  0
LINE
  8
_0-0_
  6
CONTINUOUS
 62
    7
 10
239.92449441733978
 20
457.3913124044011
 11
239.92449441733978
 21
445.70132351419766
  0
ARC
  8
_0-0_
  6
CONTINUOUS
 62
    7
 10
198.92449441733978
 20
420.70132351419766
 40
2
 50
280.7842978675622
 51
0
  0
LINE
  8
_0-0_
  6
CONTINUOUS
 62
    7
 10
190.42449441733978
 20
417.04631795929935
 11
199.29871863311976
 21
418.73664638135272
  0
ARC
  8
_0-0_
  6
CONTINUOUS
 62
    7
 10
198.92449441733978
 20
432.3913124044011
 40
2
 50
0
 51
79.215702132437797
  0
LINE
  8
_0-0_
  6
CONTINUOUS
 62
    7
 10
199.29871863311976
 20
434.35598953724604
 11
190.42449441733978
 21
436.04631795929935
  0
LINE
  8
_0-0_
  6
CONTINUOUS
 62
    7
 10
200.92449441733978
 20
420.70132351419766
 11
200.92449441733978
 21
432.3913124044011
  0
LINE
  8
_0-0_
  6
CONTINUOUS
 62
    7
 10
190.42449441733978
 20
407.04631795929941
 11
190.42449441733978
 21
417.04631795929935
  0
ARC
  8
_0-0_
  6
CONTINUOUS
 62
    7
 10
198.92449441733978
 20
457.3913124044011
 40
1.9999999999999993
 50
0
 51
79.215702132437769
  0
LINE
  8
_0-0_
  6
CONTINUOUS
 62
    7
 10
190.42449441733978
 20
461.04631795929935
 11
199.29871863311976
 21
459.35598953724604
  0
ARC
  8
_0-0_
  6
CONTINUOUS
 62
    7
 10
198.92449441733978
 20
445.70132351419766
 40
1.9999999999999993
 50
280.7842978675622
 51
0
  0
LINE
  8
_0-0_
  6
CONTINUOUS
 62
    7
 10
199.29871863311976
 20
443.73664638135272
 11
190.42449441733978
 21
442.04631795929935
  0
LINE
  8
_0-0_
  6
CONTINUOUS
 62
    7
 10
200.92449441733978
 20
457.3913124044011
 11
200.92449441733978
 21
445.70132351419766
  0
ARC
  8
_0-0_
  6
CONTINUOUS
 62
    7
 10
241.92449441733978
 20
420.70132351419766
 40
2
 50
180
 51
259.21570213243779
  0
LINE
  8
_0-0_
  6
CONTINUOUS
 62
    7
 10
250.42449441733978
 20
417.04631795929935
 11
241.55027020155981
 21
418.73664638135272
  0
ARC
  8
_0-0_
  6
CONTINUOUS
 62
    7
 10
241.92449441733978
 20
432.3913124044011
 40
2
 50
100.7842978675622
 51
180
  0
LINE
  8
_0-0_
  6
CONTINUOUS
 62
    7
 10
241.55027020155981
 20
434.35598953724604
 11
250.42449441733978
 21
436.04631795929935
  0
LINE
  8
_0-0_
  6
CONTINUOUS
 62
    7
 10
239.92449441733978
 20
420.70132351419766
 11
239.92449441733978
 21
432.3913124044011
  0
LINE
  8
_0-0_
  6
CONTINUOUS
 62
    7
 10
190.42449441733978
 20
436.04631795929935
 11
190.42449441733978
 21
442.04631795929935
  0
LINE
  8
_0-0_
  6
CONTINUOUS
 62
    7
 10
190.42449441733978
 20
461.04631795929935
 11
190.42449441733978
 21
471.04631795929935
  0
LINE
  8
_0-0_
  6
CONTINUOUS
 62
    7
 10
250.42449441733978
 20
407.04631795929941
 11
250.42449441733978
 21
417.04631795929935
  0
LINE
  8
_0-0_
  6
CONTINUOUS
 62
    7
 10
250.42449441733978
 20
436.04631795929935
 11
250.42449441733978
 21
442.04631795929935
  0
CIRCLE
  8
_0-0_
  6
CONTINUOUS
 62
    7
 10
238.81621416256271
 20
135.20236891471344
 40
1.25
  0
ARC
  8
_0-0_
  6
CONTINUOUS
 62
    7
 10
249.31621416256271
 20
191.70236891471347
 40
3
 50
0
 51
90
  0
LINE
  8
_0-0_
  6
CONTINUOUS
 62
    7
 10
195.31621416256271
 20
194.70236891471347
 11
249.31621416256271
 21
194.70236891471347
  0
ARC
  8
_0-0_
  6
CONTINUOUS
 62
    7
 10
195.31621416256271
 20
191.70236891471347
 40
3
 50
90
 51
180
  0
ARC
  8
_0-0_
  6
CONTINUOUS
 62
    7
 10
195.31621416256271
 20
127.70236891471344
 40
3
 50
180
 51
270
  0
LINE
  8
_0-0_
  6
CONTINUOUS
 62
    7
 10
249.31621416256271
 20
124.70236891471344
 11
195.31621416256271
 21
124.70236891471344
  0
ARC
  8
_0-0_
  6
CONTINUOUS
 62
    7
 10
249.31621416256271
 20
127.70236891471344
 40
3
 50
270
 51
0
  0
CIRCLE
  8
_0-0_
  6
CONTINUOUS
 62
    7
 10
206.81621416256271
 20
175.20236891471347
 40
1.5
  0
CIRCLE
  8
_0-0_
  6
CONTINUOUS
 62
    7
 10
237.81621416256271
 20
175.20236891471347
 40
1.5
  0
CIRCLE
  8
_0-0_
  6
CONTINUOUS
 62
    7
 10
237.81621416256271
 20
144.20236891471344
 40
1.5
  0
CIRCLE
  8
_0-0_
  6
CONTINUOUS
 62
    7
 10
206.81621416256271
 20
144.20236891471344
 40
1.5
  0
CIRCLE
  8
_0-0_
  6
CONTINUOUS
 62
    7
 10
197.31621416256271
 20
189.70236891471347
 40
1.25
  0
CIRCLE
  8
_0-0_
  6
CONTINUOUS
 62
    7
 10
247.31621416256271
 20
189.70236891471347
 40
1.25
  0
CIRCLE
  8
_0-0_
  6
CONTINUOUS
 62
    7
 10
197.31621416256271
 20
129.70236891471344
 40
1.25
  0
CIRCLE
  8
_0-0_
  6
CONTINUOUS
 62
    7
 10
247.31621416256271
 20
129.70236891471344
 40
1.25
  0
CIRCLE
  8
_0-0_
  6
CONTINUOUS
 62
    7
 10
205.81621416256271
 20
135.20236891471344
 40
1.25
  0
CIRCLE
  8
_0-0_
  6
CONTINUOUS
 62
    7
 10
238.81621416256271
 20
184.20236891471347
 40
1.25
  0
CIRCLE
  8
_0-0_
  6
CONTINUOUS
 62
    7
 10
205.81621416256271
 20
184.20236891471347
 40
1.25
  0
CIRCLE
  8
_0-0_
  6
CONTINUOUS
 62
    7
 10
208.31621416256282
 20
183.70236891471347
 40
1.5
  0
CIRCLE
  8
_0-0_
  6
CONTINUOUS
 62
    7
 10
236.31621416256271
 20
135.70236891471338
 40
1.5
  0
LINE
  8
_0-0_
  6
CONTINUOUS
 62
    7
 10
252.31621416256271
 20
181.70236891471347
 11
252.31621416256271
 21
191.70236891471347
  0
ARC
  8
_0-0_
  6
CONTINUOUS
 62
    7
 10
243.81621416256271
 20
178.04736335981516
 40
2
 50
100.78429786756223
 51
180
  0
LINE
  8
_0-0_
  6
CONTINUOUS
 62
    7
 10
252.31621416256271
 20
181.70236891471347
 11
243.44198994678274
 21
180.0120404926601
  0
ARC
  8
_0-0_
  6
CONTINUOUS
 62
    7
 10
243.81621416256271
 20
166.35737446961172
 40
2
 50
180
 51
259.21570213243779
  0
LINE
  8
_0-0_
  6
CONTINUOUS
 62
    7
 10
243.44198994678274
 20
164.39269733676678
 11
252.31621416256271
 21
162.70236891471347
  0
LINE
  8
_0-0_
  6
CONTINUOUS
 62
    7
 10
241.81621416256271
 20
178.04736335981516
 11
241.81621416256271
 21
166.35737446961172
  0
ARC
  8
_0-0_
  6
CONTINUOUS
 62
    7
 10
200.81621416256271
 20
141.35737446961172
 40
2
 50
280.7842978675622
 51
0
  0
LINE
  8
_0-0_
  6
CONTINUOUS
 62
    7
 10
192.31621416256271
 20
137.70236891471344
 11
201.19043837834269
 21
139.39269733676678
  0
ARC
  8
_0-0_
  6
CONTINUOUS
 62
    7
 10
200.81621416256271
 20
153.04736335981516
 40
2
 50
0
 51
79.215702132437797
  0
LINE
  8
_0-0_
  6
CONTINUOUS
 62
    7
 10
201.19043837834269
 20
155.0120404926601
 11
192.31621416256271
 21
156.70236891471344
  0
LINE
  8
_0-0_
  6
CONTINUOUS
 62
    7
 10
202.81621416256271
 20
141.35737446961172
 11
202.81621416256271
 21
153.04736335981516
  0
LINE
  8
_0-0_
  6
CONTINUOUS
 62
    7
 10
192.31621416256271
 20
127.70236891471344
 11
192.31621416256271
 21
137.70236891471344
  0
ARC
  8
_0-0_
  6
CONTINUOUS
 62
    7
 10
200.81621416256271
 20
178.04736335981516
 40
1.9999999999999993
 50
0
 51
79.215702132437769
  0
LINE
  8
_0-0_
  6
CONTINUOUS
 62
    7
 10
192.31621416256271
 20
181.70236891471347
 11
201.19043837834269
 21
180.0120404926601
  0
ARC
  8
_0-0_
  6
CONTINUOUS
 62
    7
 10
200.81621416256271
 20
166.35737446961172
 40
1.9999999999999993
 50
280.7842978675622
 51
0
  0
LINE
  8
_0-0_
  6
CONTINUOUS
 62
    7
 10
201.19043837834269
 20
164.39269733676678
 11
192.31621416256271
 21
162.70236891471347
  0
LINE
  8
_0-0_
  6
CONTINUOUS
 62
    7
 10
202.81621416256271
 20
178.04736335981516
 11
202.81621416256271
 21
166.35737446961172
  0
ARC
  8
_0-0_
  6
CONTINUOUS
 62
    7
 10
243.81621416256271
 20
141.35737446961172
 40
2
 50
180
 51
259.21570213243779
  0
LINE
  8
_0-0_
  6
CONTINUOUS
 62
    7
 10
252.31621416256271
 20
137.70236891471344
 11
243.44198994678274
 21
139.39269733676678
  0
ARC
  8
_0-0_
  6
CONTINUOUS
 62
    7
 10
243.81621416256271
 20
153.04736335981516
 40
2
 50
100.7842978675622
 51
180
  0
LINE
  8
_0-0_
  6
CONTINUOUS
 62
    7
 10
243.44198994678274
 20
155.0120404926601
 11
252.31621416256271
 21
156.70236891471344
  0
LINE
  8
_0-0_
  6
CONTINUOUS
 62
    7
 10
241.81621416256271
 20
141.35737446961172
 11
241.81621416256271
 21
153.04736335981516
  0
LINE
  8
_0-0_
  6
CONTINUOUS
 62
    7
 10
192.31621416256271
 20
156.70236891471344
 11
192.31621416256271
 21
162.70236891471347
  0
LINE
  8
_0-0_
  6
CONTINUOUS
 62
    7
 10
192.31621416256271
 20
181.70236891471347
 11
192.31621416256271
 21
191.70236891471347
  0
LINE
  8
_0-0_
  6
CONTINUOUS
 62
    7
 10
252.31621416256271
 20
127.70236891471344
 11
252.31621416256271
 21
137.70236891471344
  0
LINE
  8
_0-0_
  6
CONTINUOUS
 62
    7
 10
252.31621416256271
 20
156.70236891471344
 11
252.31621416256271
 21
162.70236891471347
  0
CIRCLE
  8
_0-0_
  6
CONTINUOUS
 62
    7
 10
509.33213772944168
 20
415.80746445611464
 40
1.25
  0
ARC
  8
_0-0_
  6
CONTINUOUS
 62
    7
 10
519.83213772944168
 20
472.30746445611464
 40
3
 50
0
 51
90
  0
LINE
  8
_0-0_
  6
CONTINUOUS
 62
    7
 10
465.83213772944168
 20
475.30746445611464
 11
519.83213772944168
 21
475.30746445611464
  0
ARC
  8
_0-0_
  6
CONTINUOUS
 62
    7
 10
465.83213772944168
 20
472.30746445611464
 40
3
 50
90
 51
180
  0
ARC
  8
_0-0_
  6
CONTINUOUS
 62
    7
 10
465.83213772944168
 20
408.3074644561147
 40
3
 50
180
 51
270
  0
LINE
  8
_0-0_
  6
CONTINUOUS
 62
    7
 10
519.83213772944168
 20
405.3074644561147
 11
465.83213772944168
 21
405.3074644561147
  0
ARC
  8
_0-0_
  6
CONTINUOUS
 62
    7
 10
519.83213772944168
 20
408.3074644561147
 40
3
 50
270
 51
0
  0
CIRCLE
  8
_0-0_
  6
CONTINUOUS
 62
    7
 10
477.33213772944168
 20
455.80746445611464
 40
1.5
  0
CIRCLE
  8
_0-0_
  6
CONTINUOUS
 62
    7
 10
508.33213772944168
 20
455.80746445611464
 40
1.5
  0
CIRCLE
  8
_0-0_
  6
CONTINUOUS
 62
    7
 10
508.33213772944168
 20
424.80746445611464
 40
1.5
  0
CIRCLE
  8
_0-0_
  6
CONTINUOUS
 62
    7
 10
477.33213772944168
 20
424.80746445611464
 40
1.5
  0
CIRCLE
  8
_0-0_
  6
CONTINUOUS
 62
    7
 10
467.83213772944168
 20
470.30746445611464
 40
1.25
  0
CIRCLE
  8
_0-0_
  6
CONTINUOUS
 62
    7
 10
517.83213772944168
 20
470.30746445611464
 40
1.25
  0
CIRCLE
  8
_0-0_
  6
CONTINUOUS
 62
    7
 10
467.83213772944168
 20
410.3074644561147
 40
1.25
  0
CIRCLE
  8
_0-0_
  6
CONTINUOUS
 62
    7
 10
517.83213772944168
 20
410.3074644561147
 40
1.25
  0
CIRCLE
  8
_0-0_
  6
CONTINUOUS
 62
    7
 10
476.33213772944168
 20
415.80746445611464
 40
1.25
  0
CIRCLE
  8
_0-0_
  6
CONTINUOUS
 62
    7
 10
509.33213772944168
 20
464.80746445611464
 40
1.25
  0
CIRCLE
  8
_0-0_
  6
CONTINUOUS
 62
    7
 10
476.33213772944168
 20
464.80746445611464
 40
1.25
  0
CIRCLE
  8
_0-0_
  6
CONTINUOUS
 62
    7
 10
478.83213772944179
 20
464.30746445611464
 40
1.5
  0
CIRCLE
  8
_0-0_
  6
CONTINUOUS
 62
    7
 10
506.83213772944168
 20
416.30746445611464
 40
1.5
  0
LINE
  8
_0-0_
  6
CONTINUOUS
 62
    7
 10
522.83213772944168
 20
462.30746445611464
 11
522.83213772944168
 21
472.30746445611464
  0
ARC
  8
_0-0_
  6
CONTINUOUS
 62
    7
 10
514.33213772944168
 20
458.65245890121639
 40
2
 50
100.78429786756223
 51
180
  0
LINE
  8
_0-0_
  6
CONTINUOUS
 62
    7
 10
522.83213772944168
 20
462.30746445611464
 11
513.95791351366165
 21
460.61713603406133
  0
ARC
  8
_0-0_
  6
CONTINUOUS
 62
    7
 10
514.33213772944168
 20
446.96247001101295
 40
2
 50
180
 51
259.21570213243779
  0
LINE
  8
_0-0_
  6
CONTINUOUS
 62
    7
 10
513.95791351366165
 20
444.99779287816801
 11
522.83213772944168
 21
443.30746445611464
  0
LINE
  8
_0-0_
  6
CONTINUOUS
 62
    7
 10
512.33213772944168
 20
458.65245890121639
 11
512.33213772944168
 21
446.96247001101295
  0
ARC
  8
_0-0_
  6
CONTINUOUS
 62
    7
 10
471.33213772944168
 20
421.96247001101295
 40
2
 50
280.7842978675622
 51
0
  0
LINE
  8
_0-0_
  6
CONTINUOUS
 62
    7
 10
462.83213772944168
 20
418.30746445611464
 11
471.7063619452216
 21
419.99779287816801
  0
ARC
  8
_0-0_
  6
CONTINUOUS
 62
    7
 10
471.33213772944168
 20
433.65245890121639
 40
2
 50
0
 51
79.215702132437797
  0
LINE
  8
_0-0_
  6
CONTINUOUS
 62
    7
 10
471.7063619452216
 20
435.61713603406133
 11
462.83213772944168
 21
437.30746445611464
  0
LINE
  8
_0-0_
  6
CONTINUOUS
 62
    7
 10
473.33213772944168
 20
421.96247001101295
 11
473.33213772944168
 21
433.65245890121639
  0
LINE
  8
_0-0_
  6
CONTINUOUS
 62
    7
 10
462.83213772944168
 20
408.3074644561147
 11
462.83213772944168
 21
418.30746445611464
  0
ARC
  8
_0-0_
  6
CONTINUOUS
 62
    7
 10
471.33213772944168
 20
458.65245890121639
 40
1.9999999999999993
 50
0
 51
79.215702132437769
  0
LINE
  8
_0-0_
  6
CONTINUOUS
 62
    7
 10
462.83213772944168
 20
462.30746445611464
 11
471.7063619452216
 21
460.61713603406133
  0
ARC
  8
_0-0_
  6
CONTINUOUS
 62
    7
 10
471.33213772944168
 20
446.96247001101295
 40
1.9999999999999993
 50
280.7842978675622
 51
0
  0
LINE
  8
_0-0_
  6
CONTINUOUS
 62
    7
 10
471.7063619452216
 20
444.99779287816801
 11
462.83213772944168
 21
443.30746445611464
  0
LINE
  8
_0-0_
  6
CONTINUOUS
 62
    7
 10
473.33213772944168
 20
458.65245890121639
 11
473.33213772944168
 21
446.96247001101295
  0
ARC
  8
_0-0_
  6
CONTINUOUS
 62
    7
 10
514.33213772944168
 20
421.96247001101295
 40
2
 50
180
 51
259.21570213243779
  0
LINE
  8
_0-0_
  6
CONTINUOUS
 62
    7
 10
522.83213772944168
 20
418.30746445611464
 11
513.95791351366165
 21
419.99779287816801
  0
ARC
  8
_0-0_
  6
CONTINUOUS
 62
    7
 10
514.33213772944168
 20
433.65245890121639
 40
2
 50
100.7842978675622
 51
180
  0
LINE
  8
_0-0_
  6
CONTINUOUS
 62
    7
 10
513.95791351366165
 20
435.61713603406133
 11
522.83213772944168
 21
437.30746445611464
  0
LINE
  8
_0-0_
  6
CONTINUOUS
 62
    7
 10
512.33213772944168
 20
421.96247001101295
 11
512.33213772944168
 21
433.65245890121639
  0
LINE
  8
_0-0_
  6
CONTINUOUS
 62
    7
 10
462.83213772944168
 20
437.30746445611464
 11
462.83213772944168
 21
443.30746445611464
  0
LINE
  8
_0-0_
  6
CONTINUOUS
 62
    7
 10
462.83213772944168
 20
462.30746445611464
 11
462.83213772944168
 21
472.30746445611464
  0
LINE
  8
_0-0_
  6
CONTINUOUS
 62
    7
 10
522.83213772944168
 20
408.3074644561147
 11
522.83213772944168
 21
418.30746445611464
  0
LINE
  8
_0-0_
  6
CONTINUOUS
 62
    7
 10
522.83213772944168
 20
437.30746445611464
 11
522.83213772944168
 21
443.30746445611464
  0
CIRCLE
  8
_0-0_
  6
CONTINUOUS
 62
    7
 10
800.65697849377284
 20
450.48899311853517
 40
1.25
  0
ARC
  8
_0-0_
  6
CONTINUOUS
 62
    7
 10
811.15697849377284
 20
506.98899311853517
 40
3
 50
0
 51
90
  0
LINE
  8
_0-0_
  6
CONTINUOUS
 62
    7
 10
757.15697849377284
 20
509.98899311853517
 11
811.15697849377284
 21
509.98899311853517
  0
ARC
  8
_0-0_
  6
CONTINUOUS
 62
    7
 10
757.15697849377284
 20
506.98899311853517
 40
3
 50
90
 51
180
  0
ARC
  8
_0-0_
  6
CONTINUOUS
 62
    7
 10
757.15697849377284
 20
442.98899311853517
 40
3
 50
180
 51
270
  0
LINE
  8
_0-0_
  6
CONTINUOUS
 62
    7
 10
811.15697849377284
 20
439.98899311853517
 11
757.15697849377284
 21
439.98899311853517
  0
ARC
  8
_0-0_
  6
CONTINUOUS
 62
    7
 10
811.15697849377284
 20
442.98899311853517
 40
3
 50
270
 51
0
  0
CIRCLE
  8
_0-0_
  6
CONTINUOUS
 62
    7
 10
768.65697849377284
 20
490.48899311853517
 40
1.5
  0
CIRCLE
  8
_0-0_
  6
CONTINUOUS
 62
    7
 10
799.65697849377284
 20
490.48899311853517
 40
1.5
  0
CIRCLE
  8
_0-0_
  6
CONTINUOUS
 62
    7
 10
799.65697849377284
 20
459.48899311853517
 40
1.5
  0
CIRCLE
  8
_0-0_
  6
CONTINUOUS
 62
    7
 10
768.65697849377284
 20
459.48899311853517
 40
1.5
  0
CIRCLE
  8
_0-0_
  6
CONTINUOUS
 62
    7
 10
759.15697849377284
 20
504.98899311853517
 40
1.25
  0
CIRCLE
  8
_0-0_
  6
CONTINUOUS
 62
    7
 10
809.15697849377284
 20
504.98899311853517
 40
1.25
  0
CIRCLE
  8
_0-0_
  6
CONTINUOUS
 62
    7
 10
759.15697849377284
 20
444.98899311853517
 40
1.25
  0
CIRCLE
  8
_0-0_
  6
CONTINUOUS
 62
    7
 10
809.15697849377284
 20
444.98899311853517
 40
1.25
  0
CIRCLE
  8
_0-0_
  6
CONTINUOUS
 62
    7
 10
767.65697849377284
 20
450.48899311853517
 40
1.25
  0
CIRCLE
  8
_0-0_
  6
CONTINUOUS
 62
    7
 10
800.65697849377284
 20
499.48899311853517
 40
1.25
  0
CIRCLE
  8
_0-0_
  6
CONTINUOUS
 62
    7
 10
767.65697849377284
 20
499.48899311853517
 40
1.25
  0
CIRCLE
  8
_0-0_
  6
CONTINUOUS
 62
    7
 10
770.15697849377284
 20
498.98899311853517
 40
1.5
  0
CIRCLE
  8
_0-0_
  6
CONTINUOUS
 62
    7
 10
798.15697849377284
 20
450.98899311853512
 40
1.5
  0
LINE
  8
_0-0_
  6
CONTINUOUS
 62
    7
 10
814.15697849377284
 20
496.98899311853517
 11
814.15697849377284
 21
506.98899311853517
  0
ARC
  8
_0-0_
  6
CONTINUOUS
 62
    7
 10
805.65697849377284
 20
493.33398756363692
 40
2
 50
100.78429786756223
 51
180
  0
LINE
  8
_0-0_
  6
CONTINUOUS
 62
    7
 10
814.15697849377284
 20
496.98899311853517
 11
805.2827542779928
 21
495.29866469648186
  0
ARC
  8
_0-0_
  6
CONTINUOUS
 62
    7
 10
805.65697849377284
 20
481.64399867343342
 40
2
 50
180
 51
259.21570213243779
  0
LINE
  8
_0-0_
  6
CONTINUOUS
 62
    7
 10
805.2827542779928
 20
479.67932154058848
 11
814.15697849377284
 21
477.98899311853517
  0
LINE
  8
_0-0_
  6
CONTINUOUS
 62
    7
 10
803.65697849377284
 20
493.33398756363692
 11
803.65697849377284
 21
481.64399867343342
  0
ARC
  8
_0-0_
  6
CONTINUOUS
 62
    7
 10
762.65697849377284
 20
456.64399867343342
 40
2
 50
280.7842978675622
 51
0
  0
LINE
  8
_0-0_
  6
CONTINUOUS
 62
    7
 10
754.15697849377284
 20
452.98899311853517
 11
763.03120270955275
 21
454.67932154058848
  0
ARC
  8
_0-0_
  6
CONTINUOUS
 62
    7
 10
762.65697849377284
 20
468.33398756363692
 40
2
 50
0
 51
79.215702132437797
  0
LINE
  8
_0-0_
  6
CONTINUOUS
 62
    7
 10
763.03120270955275
 20
470.29866469648186
 11
754.15697849377284
 21
471.98899311853517
  0
LINE
  8
_0-0_
  6
CONTINUOUS
 62
    7
 10
764.65697849377284
 20
456.64399867343342
 11
764.65697849377284
 21
468.33398756363692
  0
LINE
  8
_0-0_
  6
CONTINUOUS
 62
    7
 10
754.15697849377284
 20
442.98899311853517
 11
754.15697849377284
 21
452.98899311853517
  0
ARC
  8
_0-0_
  6
CONTINUOUS
 62
    7
 10
762.65697849377284
 20
493.33398756363692
 40
1.9999999999999993
 50
0
 51
79.215702132437769
  0
LINE
  8
_0-0_
  6
CONTINUOUS
 62
    7
 10
754.15697849377284
 20
496.98899311853517
 11
763.03120270955275
 21
495.29866469648186
  0
ARC
  8
_0-0_
  6
CONTINUOUS
 62
    7
 10
762.65697849377284
 20
481.64399867343342
 40
1.9999999999999993
 50
280.7842978675622
 51
0
  0
LINE
  8
_0-0_
  6
CONTINUOUS
 62
    7
 10
763.03120270955275
 20
479.67932154058848
 11
754.15697849377284
 21
477.98899311853517
  0
LINE
  8
_0-0_
  6
CONTINUOUS
 62
    7
 10
764.65697849377284
 20
493.33398756363692
 11
764.65697849377284
 21
481.64399867343342
  0
ARC
  8
_0-0_
  6
CONTINUOUS
 62
    7
 10
805.65697849377284
 20
456.64399867343342
 40
2
 50
180
 51
259.21570213243779
  0
LINE
  8
_0-0_
  6
CONTINUOUS
 62
    7
 10
814.15697849377284
 20
452.98899311853517
 11
805.2827542779928
 21
454.67932154058848
  0
ARC
  8
_0-0_
  6
CONTINUOUS
 62
    7
 10
805.65697849377284
 20
468.33398756363692
 40
2
 50
100.7842978675622
 51
180
  0
LINE
  8
_0-0_
  6
CONTINUOUS
 62
    7
 10
805.2827542779928
 20
470.29866469648186
 11
814.15697849377284
 21
471.98899311853517
  0
LINE
  8
_0-0_
  6
CONTINUOUS
 62
    7
 10
803.65697849377284
 20
456.64399867343342
 11
803.65697849377284
 21
468.33398756363692
  0
LINE
  8
_0-0_
  6
CONTINUOUS
 62
    7
 10
754.15697849377284
 20
471.98899311853517
 11
754.15697849377284
 21
477.98899311853517
  0
LINE
  8
_0-0_
  6
CONTINUOUS
 62
    7
 10
754.15697849377284
 20
496.98899311853517
 11
754.15697849377284
 21
506.98899311853517
  0
LINE
  8
_0-0_
  6
CONTINUOUS
 62
    7
 10
814.15697849377284
 20
442.98899311853517
 11
814.15697849377284
 21
452.98899311853517
  0
LINE
  8
_0-0_
  6
CONTINUOUS
 62
    7
 10
814.15697849377284
 20
471.98899311853517
 11
814.15697849377284
 21
477.98899311853517
  0
LINE
  8
_0-0_
  6
CONTINUOUS
 62
    7
 10
720.88313999799925
 20
299.05905681280268
 11
715.88313999799925
 21
299.05905681280268
  0
LINE
  8
_0-0_
  6
CONTINUOUS
 62
    7
 10
187.99774282498316
 20
297.55905681280268
 11
193.99774282498316
 21
297.55905681280268
  0
LINE
  8
_0-0_
  6
CONTINUOUS
 62
    7
 10
193.99774282498316
 20
297.55905681280268
 11
193.99774282498316
 21
300.55905681280268
  0
LINE
  8
_0-0_
  6
CONTINUOUS
 62
    7
 10
193.99774282498316
 20
300.55905681280268
 11
187.99774282498316
 21
300.55905681280268
  0
LINE
  8
_0-0_
  6
CONTINUOUS
 62
    7
 10
187.99774282498316
 20
300.55905681280268
 11
187.99774282498316
 21
297.55905681280268
  0
LINE
  8
_0-0_
  6
CONTINUOUS
 62
    7
 10
354.4977428249831
 20
461.05905681280268
 11
357.4977428249831
 21
461.05905681280268
  0
LINE
  8
_0-0_
  6
CONTINUOUS
 62
    7
 10
357.4977428249831
 20
461.05905681280268
 11
357.4977428249831
 21
467.05905681280268
  0
LINE
  8
_0-0_
  6
CONTINUOUS
 62
    7
 10
357.4977428249831
 20
467.05905681280268
 11
354.4977428249831
 21
467.05905681280268
  0
LINE
  8
_0-0_
  6
CONTINUOUS
 62
    7
 10
354.4977428249831
 20
467.05905681280268
 11
354.4977428249831
 21
461.05905681280268
  0
LINE
  8
_0-0_
  6
CONTINUOUS
 62
    7
 10
517.9977428249831
 20
297.55905681280268
 11
523.9977428249831
 21
297.55905681280268
  0
LINE
  8
_0-0_
  6
CONTINUOUS
 62
    7
 10
523.9977428249831
 20
297.55905681280268
 11
523.9977428249831
 21
300.55905681280268
  0
LINE
  8
_0-0_
  6
CONTINUOUS
 62
    7
 10
523.9977428249831
 20
300.55905681280268
 11
517.9977428249831
 21
300.55905681280268
  0
LINE
  8
_0-0_
  6
CONTINUOUS
 62
    7
 10
517.9977428249831
 20
300.55905681280268
 11
517.9977428249831
 21
297.55905681280268
  0
LINE
  8
_0-0_
  6
CONTINUOUS
 62
    7
 10
354.4977428249831
 20
131.05905681280268
 11
357.4977428249831
 21
131.05905681280268
  0
LINE
  8
_0-0_
  6
CONTINUOUS
 62
    7
 10
357.4977428249831
 20
131.05905681280268
 11
357.4977428249831
 21
137.05905681280268
  0
LINE
  8
_0-0_
  6
CONTINUOUS
 62
    7
 10
357.4977428249831
 20
137.05905681280268
 11
354.4977428249831
 21
137.05905681280268
  0
LINE
  8
_0-0_
  6
CONTINUOUS
 62
    7
 10
354.4977428249831
 20
137.05905681280268
 11
354.4977428249831
 21
131.05905681280268
  0
LINE
  8
_0-0_
  6
CONTINUOUS
 62
    7
 10
865.62726147337866
 20
148.25674789560534
 11
863.29645627037166
 21
149.07948177762696
  0
LINE
  8
_0-0_
  6
CONTINUOUS
 62
    7
 10
863.29645627037166
 20
149.07948177762696
 11
859.27421392892119
 21
150.47975131504099
  0
LINE
  8
_0-0_
  6
CONTINUOUS
 62
    7
 10
859.27421392892119
 20
150.47975131504099
 11
855.24193636221104
 21
151.8293620865476
  0
LINE
  8
_0-0_
  6
CONTINUOUS
 62
    7
 10
855.24193636221104
 20
151.8293620865476
 11
851.19327216184865
 21
153.09625158207879
  0
LINE
  8
_0-0_
  6
CONTINUOUS
 62
    7
 10
851.19327216184865
 20
153.09625158207879
 11
847.12186991944167
 21
154.24835729156646
  0
LINE
  8
_0-0_
  6
CONTINUOUS
 62
    7
 10
847.12186991944167
 20
154.24835729156646
 11
843.02137822659801
 21
155.25361670494268
  0
LINE
  8
_0-0_
  6
CONTINUOUS
 62
    7
 10
843.02137822659801
 20
155.25361670494268
 11
840.62726147337866
 21
155.75674789560534
  0
LINE
  8
_0-0_
  6
CONTINUOUS
 62
    7
 10
840.62726147337866
 20
155.75674789560534
 11
838.31063404454346
 21
156.18027330132636
  0
LINE
  8
_0-0_
  6
CONTINUOUS
 62
    7
 10
838.31063404454346
 20
156.18027330132636
 11
834.29115637210759
 21
156.78281083762723
  0
LINE
  8
_0-0_
  6
CONTINUOUS
 62
    7
 10
834.29115637210759
 20
156.78281083762723
 11
830.24472425477165
 21
157.24927978762295
  0
LINE
  8
_0-0_
  6
CONTINUOUS
 62
    7
 10
830.24472425477165
 20
157.24927978762295
 11
826.17722294251359
 21
157.60938944963348
  0
LINE
  8
_0-0_
  6
CONTINUOUS
 62
    7
 10
826.17722294251359
 20
157.60938944963348
 11
822.09453768531182
 21
157.89284912197865
  0
LINE
  8
_0-0_
  6
CONTINUOUS
 62
    7
 10
822.09453768531182
 20
157.89284912197865
 11
818.00255373314439
 21
158.12936810297841
  0
LINE
  8
_0-0_
  6
CONTINUOUS
 62
    7
 10
818.00255373314439
 20
158.12936810297841
 11
815.62726147337866
 21
158.25674789560534
  0
LINE
  8
_0-0_
  6
CONTINUOUS
 62
    7
 10
865.62726147337866
 20
158.25674789560534
 11
865.62726147337866
 21
168.25674789560537
  0
LINE
  8
_0-0_
  6
CONTINUOUS
 62
    7
 10
865.62726147337866
 20
168.25674789560537
 11
865.62726147337866
 21
178.25674789560537
  0
LINE
  8
_0-0_
  6
CONTINUOUS
 62
    7
 10
865.62726147337866
 20
158.25674789560534
 11
865.62726147337866
 21
148.25674789560534
  0
LINE
  8
_0-0_
  6
CONTINUOUS
 62
    7
 10
865.62726147337866
 20
178.25674789560537
 11
863.29645627037166
 21
177.43401401358374
  0
LINE
  8
_0-0_
  6
CONTINUOUS
 62
    7
 10
863.29645627037166
 20
177.43401401358374
 11
859.27421392892119
 21
176.03374447616965
  0
LINE
  8
_0-0_
  6
CONTINUOUS
 62
    7
 10
859.27421392892119
 20
176.03374447616965
 11
855.24193636221104
 21
174.68413370466305
  0
LINE
  8
_0-0_
  6
CONTINUOUS
 62
    7
 10
855.24193636221104
 20
174.68413370466305
 11
851.19327216184865
 21
173.41724420913192
  0
LINE
  8
_0-0_
  6
CONTINUOUS
 62
    7
 10
851.19327216184865
 20
173.41724420913192
 11
847.12186991944167
 21
172.26513849964419
  0
LINE
  8
_0-0_
  6
CONTINUOUS
 62
    7
 10
847.12186991944167
 20
172.26513849964419
 11
843.02137822659801
 21
171.25987908626797
  0
LINE
  8
_0-0_
  6
CONTINUOUS
 62
    7
 10
843.02137822659801
 20
171.25987908626797
 11
840.62726147337866
 21
170.75674789560537
  0
LINE
  8
_0-0_
  6
CONTINUOUS
 62
    7
 10
840.62726147337866
 20
170.75674789560537
 11
838.31063404454346
 21
170.33322248988429
  0
LINE
  8
_0-0_
  6
CONTINUOUS
 62
    7
 10
838.31063404454346
 20
170.33322248988429
 11
834.29115637210759
 21
169.73068495358347
  0
LINE
  8
_0-0_
  6
CONTINUOUS
 62
    7
 10
834.29115637210759
 20
169.73068495358347
 11
830.24472425477165
 21
169.2642160035877
  0
LINE
  8
_0-0_
  6
CONTINUOUS
 62
    7
 10
830.24472425477165
 20
169.2642160035877
 11
826.17722294251359
 21
168.90410634157723
  0
LINE
  8
_0-0_
  6
CONTINUOUS
 62
    7
 10
826.17722294251359
 20
168.90410634157723
 11
822.09453768531182
 21
168.62064666923203
  0
LINE
  8
_0-0_
  6
CONTINUOUS
 62
    7
 10
822.09453768531182
 20
168.62064666923203
 11
818.00255373314439
 21
168.38412768823229
  0
LINE
  8
_0-0_
  6
CONTINUOUS
 62
    7
 10
818.00255373314439
 20
168.38412768823229
 11
815.62726147337866
 21
168.25674789560537
  0
LINE
  8
_0-0_
  6
CONTINUOUS
 62
    7
 10
815.62726147337866
 20
168.25674789560537
 11
815.62726147337866
 21
164.75674789560537
  0
LINE
  8
_0-0_
  6
CONTINUOUS
 62
    7
 10
815.62726147337866
 20
164.75674789560537
 11
840.62726147337866
 21
164.75674789560537
  0
LINE
  8
_0-0_
  6
CONTINUOUS
 62
    7
 10
840.62726147337866
 20
164.75674789560537
 11
840.62726147337866
 21
161.75674789560537
  0
LINE
  8
_0-0_
  6
CONTINUOUS
 62
    7
 10
840.62726147337866
 20
161.75674789560537
 11
815.62726147337866
 21
161.75674789560537
  0
LINE
  8
_0-0_
  6
CONTINUOUS
 62
    7
 10
815.62726147337866
 20
161.75674789560537
 11
815.62726147337866
 21
158.25674789560534
  0
LINE
  8
_0-0_
  6
CONTINUOUS
 62
    7
 10
620.9977428249831
 20
338.66593236600709
 11
620.9977428249831
 21
300.55905681280268
  0
LINE
  8
_0-0_
  6
CONTINUOUS
 62
    7
 10
620.9977428249831
 20
297.55905681280268
 11
620.9977428249831
 21
259.45242347970838
  0
LINE
  8
_0-0_
  6
CONTINUOUS
 62
    7
 10
620.9977428249831
 20
300.55905681280268
 11
613.4977428249831
 21
300.55905681280268
  0
LINE
  8
_0-0_
  6
CONTINUOUS
 62
    7
 10
613.4977428249831
 20
300.55905681280268
 11
613.4977428249831
 21
297.55905681280268
  0
LINE
  8
_0-0_
  6
CONTINUOUS
 62
    7
 10
613.4977428249831
 20
297.55905681280268
 11
620.9977428249831
 21
297.55905681280268
  0
LINE
  8
_0-0_
  6
CONTINUOUS
 62
    7
 10
645.9977428249831
 20
339.05905681280273
 11
645.9977428249831
 21
300.55905681280268
  0
LINE
  8
_0-0_
  6
CONTINUOUS
 62
    7
 10
645.9977428249831
 20
297.55905681280268
 11
645.9977428249831
 21
259.0589433906428
  0
LINE
  8
_0-0_
  6
CONTINUOUS
 62
    7
 10
645.9977428249831
 20
300.55905681280268
 11
650.9977428249831
 21
300.55905681280268
  0
LINE
  8
_0-0_
  6
CONTINUOUS
 62
    7
 10
650.9977428249831
 20
300.55905681280268
 11
650.9977428249831
 21
297.55905681280268
  0
LINE
  8
_0-0_
  6
CONTINUOUS
 62
    7
 10
650.9977428249831
 20
297.55905681280268
 11
645.9977428249831
 21
297.55905681280268
  0
LINE
  8
_0-0_
  6
CONTINUOUS
 62
    7
 10
675.88313999799925
 20
461.05905681280268
 11
675.88313999799925
 21
300.55905681280268
  0
LINE
  8
_0-0_
  6
CONTINUOUS
 62
    7
 10
675.88313999799925
 20
297.55905681280268
 11
675.88313999799925
 21
137.0779972938385
  0
LINE
  8
_0-0_
  6
CONTINUOUS
 62
    7
 10
675.88313999799925
 20
300.55905681280268
 11
683.38313999799925
 21
300.55905681280268
  0
LINE
  8
_0-0_
  6
CONTINUOUS
 62
    7
 10
683.38313999799925
 20
300.55905681280268
 11
683.38313999799925
 21
297.55905681280268
  0
LINE
  8
_0-0_
  6
CONTINUOUS
 62
    7
 10
683.38313999799925
 20
297.55905681280268
 11
675.88313999799925
 21
297.55905681280268
  0
LINE
  8
_0-0_
  6
CONTINUOUS
 62
    7
 10
725.88313999799925
 20
339.05905681280273
 11
725.88313999799925
 21
300.55905681280268
  0
LINE
  8
_0-0_
  6
CONTINUOUS
 62
    7
 10
725.88313999799925
 20
297.55905681280268
 11
725.88313999799925
 21
259.0589433906428
  0
LINE
  8
_0-0_
  6
CONTINUOUS
 62
    7
 10
720.88313999799925
 20
300.55905681280268
 11
720.88313999799925
 21
297.55905681280268
  0
LINE
  8
_0-0_
  6
CONTINUOUS
 62
    7
 10
720.88313999799925
 20
297.55905681280268
 11
725.88313999799925
 21
297.55905681280268
  0
LINE
  8
_0-0_
  6
CONTINUOUS
 62
    7
 10
725.88313999799925
 20
300.55905681280268
 11
720.88313999799925
 21
300.55905681280268
  0
LINE
  8
_0-0_
  6
CONTINUOUS
 62
    7
 10
700.88313999799925
 20
92.326421274186202
 11
700.88313999799925
 21
92.319685793694446
  0
LINE
  8
_0-0_
  6
CONTINUOUS
 62
    7
 10
605.9977428249831
 20
131.0779972938385
 11
605.9977428249831
 21
92.57642127418623
  0
LINE
  8
_0-0_
  6
CONTINUOUS
 62
    7
 10
605.9977428249831
 20
89.57642127418623
 11
605.9977428249831
 21
86.093785735569781
  0
LINE
  8
_0-0_
  6
CONTINUOUS
 62
    7
 10
605.9977428249831
 20
92.57642127418623
 11
630.9977428249831
 21
92.57642127418623
  0
LINE
  8
_0-0_
  6
CONTINUOUS
 62
    7
 10
630.9977428249831
 20
92.57642127418623
 11
630.9977428249831
 21
89.57642127418623
  0
LINE
  8
_0-0_
  6
CONTINUOUS
 62
    7
 10
605.9977428249831
 20
89.57642127418623
 11
630.9977428249831
 21
89.57642127418623
  0
LINE
  8
_0-0_
  6
CONTINUOUS
 62
    7
 10
675.88313999799925
 20
131.0779972938385
 11
675.88313999799925
 21
92.57642127418623
  0
LINE
  8
_0-0_
  6
CONTINUOUS
 62
    7
 10
675.88313999799925
 20
89.57642127418623
 11
675.88313999799925
 21
86.093785735569781
  0
LINE
  8
_0-0_
  6
CONTINUOUS
 62
    7
 10
675.88313999799925
 20
92.57642127418623
 11
700.88313999799925
 21
92.57642127418623
  0
LINE
  8
_0-0_
  6
CONTINUOUS
 62
    7
 10
700.88313999799925
 20
92.57642127418623
 11
700.88313999799925
 21
89.57642127418623
  0
LINE
  8
_0-0_
  6
CONTINUOUS
 62
    7
 10
700.88313999799925
 20
89.57642127418623
 11
675.88313999799925
 21
89.57642127418623
  0
LINE
  8
_0-0_
  6
CONTINUOUS
 62
    7
 10
605.9977428249831
 20
512.05905681280273
 11
605.9977428249831
 21
508.55905681280268
  0
LINE
  8
_0-0_
  6
CONTINUOUS
 62
    7
 10
605.9977428249831
 20
505.55905681280268
 11
605.9977428249831
 21
467.05905681280268
  0
LINE
  8
_0-0_
  6
CONTINUOUS
 62
    7
 10
605.9977428249831
 20
508.55905681280268
 11
630.9977428249831
 21
508.55905681280268
  0
LINE
  8
_0-0_
  6
CONTINUOUS
 62
    7
 10
630.9977428249831
 20
508.55905681280268
 11
630.9977428249831
 21
505.55905681280268
  0
LINE
  8
_0-0_
  6
CONTINUOUS
 62
    7
 10
630.9977428249831
 20
505.55905681280268
 11
605.9977428249831
 21
505.55905681280268
  0
LINE
  8
_0-0_
  6
CONTINUOUS
 62
    7
 10
675.88313999799925
 20
512.05905681280273
 11
675.88313999799925
 21
508.55905681280268
  0
LINE
  8
_0-0_
  6
CONTINUOUS
 62
    7
 10
675.88313999799925
 20
505.55905681280268
 11
675.88313999799925
 21
467.05905681280268
  0
LINE
  8
_0-0_
  6
CONTINUOUS
 62
    7
 10
675.88313999799925
 20
508.55905681280268
 11
700.88313999799925
 21
508.55905681280268
  0
LINE
  8
_0-0_
  6
CONTINUOUS
 62
    7
 10
700.88313999799925
 20
508.55905681280268
 11
700.88313999799925
 21
505.55905681280268
  0
LINE
  8
_0-0_
  6
CONTINUOUS
 62
    7
 10
700.88313999799925
 20
505.55905681280268
 11
675.88313999799925
 21
505.55905681280268
  0
LINE
  8
_0-0_
  6
CONTINUOUS
 62
    7
 10
503.27262952741136
 20
101.76207221230299
 11
503.27262952741136
 21
98.262072212302996
  0
LINE
  8
_0-0_
  6
CONTINUOUS
 62
    7
 10
528.27262952741136
 20
101.76207221230299
 11
503.27262952741136
 21
101.76207221230299
  0
LINE
  8
_0-0_
  6
CONTINUOUS
 62
    7
 10
528.27262952741136
 20
104.76207221230299
 11
528.27262952741136
 21
101.76207221230299
  0
LINE
  8
_0-0_
  6
CONTINUOUS
 62
    7
 10
503.27262952741136
 20
104.76207221230299
 11
528.27262952741136
 21
104.76207221230299
  0
LINE
  8
_0-0_
  6
CONTINUOUS
 62
    7
 10
503.27262952741136
 20
108.26207221230299
 11
503.27262952741136
 21
104.76207221230299
  0
LINE
  8
_0-0_
  6
CONTINUOUS
 62
    7
 10
505.64792178717721
 20
108.38945200492992
 11
503.27262952741136
 21
108.26207221230299
  0
LINE
  8
_0-0_
  6
CONTINUOUS
 62
    7
 10
509.73990573934452
 20
108.62597098592965
 11
505.64792178717721
 21
108.38945200492992
  0
LINE
  8
_0-0_
  6
CONTINUOUS
 62
    7
 10
513.82259099654629
 20
108.90943065827485
 11
509.73990573934452
 21
108.62597098592965
  0
LINE
  8
_0-0_
  6
CONTINUOUS
 62
    7
 10
517.89009230880435
 20
109.26954032028532
 11
513.82259099654629
 21
108.90943065827485
  0
LINE
  8
_0-0_
  6
CONTINUOUS
 62
    7
 10
521.93652442614029
 20
109.7360092702811
 11
517.89009230880435
 21
109.26954032028532
  0
LINE
  8
_0-0_
  6
CONTINUOUS
 62
    7
 10
525.95600209857616
 20
110.33854680658191
 11
521.93652442614029
 21
109.7360092702811
  0
LINE
  8
_0-0_
  6
CONTINUOUS
 62
    7
 10
528.27262952741136
 20
110.76207221230299
 11
525.95600209857616
 21
110.33854680658191
  0
LINE
  8
_0-0_
  6
CONTINUOUS
 62
    7
 10
530.66674628063071
 20
111.26520340296559
 11
528.27262952741136
 21
110.76207221230299
  0
LINE
  8
_0-0_
  6
CONTINUOUS
 62
    7
 10
534.76723797347437
 20
112.27046281634181
 11
530.66674628063071
 21
111.26520340296559
  0
LINE
  8
_0-0_
  6
CONTINUOUS
 62
    7
 10
538.83864021588135
 20
113.42256852582954
 11
534.76723797347437
 21
112.27046281634181
  0
LINE
  8
_0-0_
  6
CONTINUOUS
 62
    7
 10
542.88730441624375
 20
114.68945802136067
 11
538.83864021588135
 21
113.42256852582954
  0
LINE
  8
_0-0_
  6
CONTINUOUS
 62
    7
 10
546.91958198295401
 20
116.03906879286728
 11
542.88730441624375
 21
114.68945802136067
  0
LINE
  8
_0-0_
  6
CONTINUOUS
 62
    7
 10
550.94182432440436
 20
117.43933833028137
 11
546.91958198295401
 21
116.03906879286728
  0
LINE
  8
_0-0_
  6
CONTINUOUS
 62
    7
 10
553.27262952741136
 20
118.26207221230299
 11
550.94182432440436
 21
117.43933833028137
  0
LINE
  8
_0-0_
  6
CONTINUOUS
 62
    7
 10
553.27262952741136
 20
98.262072212302996
 11
553.27262952741136
 21
88.262072212302996
  0
LINE
  8
_0-0_
  6
CONTINUOUS
 62
    7
 10
553.27262952741136
 20
108.26207221230299
 11
553.27262952741136
 21
118.26207221230299
  0
LINE
  8
_0-0_
  6
CONTINUOUS
 62
    7
 10
553.27262952741136
 20
98.262072212302996
 11
553.27262952741136
 21
108.26207221230299
  0
LINE
  8
_0-0_
  6
CONTINUOUS
 62
    7
 10
505.64792178717721
 20
98.134692419676071
 11
503.27262952741136
 21
98.262072212302996
  0
LINE
  8
_0-0_
  6
CONTINUOUS
 62
    7
 10
509.73990573934452
 20
97.89817343867628
 11
505.64792178717721
 21
98.134692419676071
  0
LINE
  8
_0-0_
  6
CONTINUOUS
 62
    7
 10
513.82259099654629
 20
97.614713766331135
 11
509.73990573934452
 21
97.89817343867628
  0
LINE
  8
_0-0_
  6
CONTINUOUS
 62
    7
 10
517.89009230880435
 20
97.254604104320605
 11
513.82259099654629
 21
97.614713766331135
  0
LINE
  8
_0-0_
  6
CONTINUOUS
 62
    7
 10
521.93652442614029
 20
96.788135154324891
 11
517.89009230880435
 21
97.254604104320605
  0
LINE
  8
_0-0_
  6
CONTINUOUS
 62
    7
 10
525.95600209857616
 20
96.185597618024019
 11
521.93652442614029
 21
96.788135154324891
  0
LINE
  8
_0-0_
  6
CONTINUOUS
 62
    7
 10
528.27262952741136
 20
95.762072212302996
 11
525.95600209857616
 21
96.185597618024019
  0
LINE
  8
_0-0_
  6
CONTINUOUS
 62
    7
 10
530.66674628063071
 20
95.258941021640339
 11
528.27262952741136
 21
95.762072212302996
  0
LINE
  8
_0-0_
  6
CONTINUOUS
 62
    7
 10
534.76723797347437
 20
94.253681608264116
 11
530.66674628063071
 21
95.258941021640339
  0
LINE
  8
_0-0_
  6
CONTINUOUS
 62
    7
 10
538.83864021588135
 20
93.101575898776445
 11
534.76723797347437
 21
94.253681608264116
  0
LINE
  8
_0-0_
  6
CONTINUOUS
 62
    7
 10
542.88730441624375
 20
91.834686403245257
 11
538.83864021588135
 21
93.101575898776445
  0
LINE
  8
_0-0_
  6
CONTINUOUS
 62
    7
 10
546.91958198295401
 20
90.485075631738652
 11
542.88730441624375
 21
91.834686403245257
  0
LINE
  8
_0-0_
  6
CONTINUOUS
 62
    7
 10
550.94182432440436
 20
89.084806094324619
 11
546.91958198295401
 21
90.485075631738652
  0
LINE
  8
_0-0_
  6
CONTINUOUS
 62
    7
 10
553.27262952741136
 20
88.262072212302996
 11
550.94182432440436
 21
89.084806094324619
  0
LINE
  8
_0-0_
  6
CONTINUOUS
 62
    7
 10
503.27262952741136
 20
133.92130788109278
 11
503.27262952741136
 21
130.42130788109278
  0
LINE
  8
_0-0_
  6
CONTINUOUS
 62
    7
 10
528.27262952741136
 20
133.92130788109278
 11
503.27262952741136
 21
133.92130788109278
  0
LINE
  8
_0-0_
  6
CONTINUOUS
 62
    7
 10
528.27262952741136
 20
136.92130788109278
 11
528.27262952741136
 21
133.92130788109278
  0
LINE
  8
_0-0_
  6
CONTINUOUS
 62
    7
 10
503.27262952741136
 20
136.92130788109278
 11
528.27262952741136
 21
136.92130788109278
  0
LINE
  8
_0-0_
  6
CONTINUOUS
 62
    7
 10
503.27262952741136
 20
140.42130788109281
 11
503.27262952741136
 21
136.92130788109278
  0
LINE
  8
_0-0_
  6
CONTINUOUS
 62
    7
 10
505.64792178717721
 20
140.54868767371974
 11
503.27262952741136
 21
140.42130788109281
  0
LINE
  8
_0-0_
  6
CONTINUOUS
 62
    7
 10
509.73990573934452
 20
140.78520665471947
 11
505.64792178717721
 21
140.54868767371974
  0
LINE
  8
_0-0_
  6
CONTINUOUS
 62
    7
 10
513.82259099654629
 20
141.06866632706467
 11
509.73990573934452
 21
140.78520665471947
  0
LINE
  8
_0-0_
  6
CONTINUOUS
 62
    7
 10
517.89009230880435
 20
141.42877598907514
 11
513.82259099654629
 21
141.06866632706467
  0
LINE
  8
_0-0_
  6
CONTINUOUS
 62
    7
 10
521.93652442614029
 20
141.89524493907092
 11
517.89009230880435
 21
141.42877598907514
  0
LINE
  8
_0-0_
  6
CONTINUOUS
 62
    7
 10
525.95600209857616
 20
142.49778247537173
 11
521.93652442614029
 21
141.89524493907092
  0
LINE
  8
_0-0_
  6
CONTINUOUS
 62
    7
 10
528.27262952741136
 20
142.92130788109281
 11
525.95600209857616
 21
142.49778247537173
  0
LINE
  8
_0-0_
  6
CONTINUOUS
 62
    7
 10
530.66674628063071
 20
143.42443907175541
 11
528.27262952741136
 21
142.92130788109281
  0
LINE
  8
_0-0_
  6
CONTINUOUS
 62
    7
 10
534.76723797347437
 20
144.42969848513163
 11
530.66674628063071
 21
143.42443907175541
  0
LINE
  8
_0-0_
  6
CONTINUOUS
 62
    7
 10
538.83864021588135
 20
145.58180419461936
 11
534.76723797347437
 21
144.42969848513163
  0
LINE
  8
_0-0_
  6
CONTINUOUS
 62
    7
 10
542.88730441624375
 20
146.84869369015049
 11
538.83864021588135
 21
145.58180419461936
  0
LINE
  8
_0-0_
  6
CONTINUOUS
 62
    7
 10
546.91958198295401
 20
148.1983044616571
 11
542.88730441624375
 21
146.84869369015049
  0
LINE
  8
_0-0_
  6
CONTINUOUS
 62
    7
 10
550.94182432440436
 20
149.59857399907119
 11
546.91958198295401
 21
148.1983044616571
  0
LINE
  8
_0-0_
  6
CONTINUOUS
 62
    7
 10
553.27262952741136
 20
150.42130788109281
 11
550.94182432440436
 21
149.59857399907119
  0
LINE
  8
_0-0_
  6
CONTINUOUS
 62
    7
 10
553.27262952741136
 20
130.42130788109278
 11
553.27262952741136
 21
120.42130788109278
  0
LINE
  8
_0-0_
  6
CONTINUOUS
 62
    7
 10
553.27262952741136
 20
140.42130788109281
 11
553.27262952741136
 21
150.42130788109281
  0
LINE
  8
_0-0_
  6
CONTINUOUS
 62
    7
 10
553.27262952741136
 20
130.42130788109278
 11
553.27262952741136
 21
140.42130788109281
  0
LINE
  8
_0-0_
  6
CONTINUOUS
 62
    7
 10
505.64792178717721
 20
130.29392808846586
 11
503.27262952741136
 21
130.42130788109278
  0
LINE
  8
_0-0_
  6
CONTINUOUS
 62
    7
 10
509.73990573934452
 20
130.05740910746612
 11
505.64792178717721
 21
130.29392808846586
  0
LINE
  8
_0-0_
  6
CONTINUOUS
 62
    7
 10
513.82259099654629
 20
129.77394943512092
 11
509.73990573934452
 21
130.05740910746612
  0
LINE
  8
_0-0_
  6
CONTINUOUS
 62
    7
 10
517.89009230880435
 20
129.41383977311039
 11
513.82259099654629
 21
129.77394943512092
  0
LINE
  8
_0-0_
  6
CONTINUOUS
 62
    7
 10
521.93652442614029
 20
128.94737082311468
 11
517.89009230880435
 21
129.41383977311039
  0
LINE
  8
_0-0_
  6
CONTINUOUS
 62
    7
 10
525.95600209857616
 20
128.3448332868138
 11
521.93652442614029
 21
128.94737082311468
  0
LINE
  8
_0-0_
  6
CONTINUOUS
 62
    7
 10
528.27262952741136
 20
127.92130788109278
 11
525.95600209857616
 21
128.3448332868138
  0
LINE
  8
_0-0_
  6
CONTINUOUS
 62
    7
 10
530.66674628063071
 20
127.41817669043012
 11
528.27262952741136
 21
127.92130788109278
  0
LINE
  8
_0-0_
  6
CONTINUOUS
 62
    7
 10
534.76723797347437
 20
126.4129172770539
 11
530.66674628063071
 21
127.41817669043012
  0
LINE
  8
_0-0_
  6
CONTINUOUS
 62
    7
 10
538.83864021588135
 20
125.26081156756623
 11
534.76723797347437
 21
126.4129172770539
  0
LINE
  8
_0-0_
  6
CONTINUOUS
 62
    7
 10
542.88730441624375
 20
123.99392207203504
 11
538.83864021588135
 21
125.26081156756623
  0
LINE
  8
_0-0_
  6
CONTINUOUS
 62
    7
 10
546.91958198295401
 20
122.64431130052844
 11
542.88730441624375
 21
123.99392207203504
  0
LINE
  8
_0-0_
  6
CONTINUOUS
 62
    7
 10
550.94182432440436
 20
121.24404176311441
 11
546.91958198295401
 21
122.64431130052844
  0
LINE
  8
_0-0_
  6
CONTINUOUS
 62
    7
 10
553.27262952741136
 20
120.42130788109278
 11
550.94182432440436
 21
121.24404176311441
  0
LINE
  8
_0-0_
  6
CONTINUOUS
 62
    7
 10
503.27262952741136
 20
167.97226329510556
 11
503.27262952741136
 21
164.47226329510556
  0
LINE
  8
_0-0_
  6
CONTINUOUS
 62
    7
 10
528.27262952741136
 20
167.97226329510556
 11
503.27262952741136
 21
167.97226329510556
  0
LINE
  8
_0-0_
  6
CONTINUOUS
 62
    7
 10
528.27262952741136
 20
170.97226329510556
 11
528.27262952741136
 21
167.97226329510556
  0
LINE
  8
_0-0_
  6
CONTINUOUS
 62
    7
 10
503.27262952741136
 20
170.97226329510556
 11
528.27262952741136
 21
170.97226329510556
  0
LINE
  8
_0-0_
  6
CONTINUOUS
 62
    7
 10
503.27262952741136
 20
174.47226329510556
 11
503.27262952741136
 21
170.97226329510556
  0
LINE
  8
_0-0_
  6
CONTINUOUS
 62
    7
 10
505.64792178717721
 20
174.59964308773248
 11
503.27262952741136
 21
174.47226329510556
  0
LINE
  8
_0-0_
  6
CONTINUOUS
 62
    7
 10
509.73990573934452
 20
174.83616206873222
 11
505.64792178717721
 21
174.59964308773248
  0
LINE
  8
_0-0_
  6
CONTINUOUS
 62
    7
 10
513.82259099654629
 20
175.11962174107742
 11
509.73990573934452
 21
174.83616206873222
  0
LINE
  8
_0-0_
  6
CONTINUOUS
 62
    7
 10
517.89009230880435
 20
175.47973140308789
 11
513.82259099654629
 21
175.11962174107742
  0
LINE
  8
_0-0_
  6
CONTINUOUS
 62
    7
 10
521.93652442614029
 20
175.94620035308366
 11
517.89009230880435
 21
175.47973140308789
  0
LINE
  8
_0-0_
  6
CONTINUOUS
 62
    7
 10
525.95600209857616
 20
176.54873788938448
 11
521.93652442614029
 21
175.94620035308366
  0
LINE
  8
_0-0_
  6
CONTINUOUS
 62
    7
 10
528.27262952741136
 20
176.97226329510556
 11
525.95600209857616
 21
176.54873788938448
  0
LINE
  8
_0-0_
  6
CONTINUOUS
 62
    7
 10
530.66674628063071
 20
177.47539448576816
 11
528.27262952741136
 21
176.97226329510556
  0
LINE
  8
_0-0_
  6
CONTINUOUS
 62
    7
 10
534.76723797347437
 20
178.48065389914438
 11
530.66674628063071
 21
177.47539448576816
  0
LINE
  8
_0-0_
  6
CONTINUOUS
 62
    7
 10
538.83864021588135
 20
179.63275960863211
 11
534.76723797347437
 21
178.48065389914438
  0
LINE
  8
_0-0_
  6
CONTINUOUS
 62
    7
 10
542.88730441624375
 20
180.89964910416324
 11
538.83864021588135
 21
179.63275960863211
  0
LINE
  8
_0-0_
  6
CONTINUOUS
 62
    7
 10
546.91958198295401
 20
182.24925987566984
 11
542.88730441624375
 21
180.89964910416324
  0
LINE
  8
_0-0_
  6
CONTINUOUS
 62
    7
 10
550.94182432440436
 20
183.64952941308393
 11
546.91958198295401
 21
182.24925987566984
  0
LINE
  8
_0-0_
  6
CONTINUOUS
 62
    7
 10
553.27262952741136
 20
184.47226329510556
 11
550.94182432440436
 21
183.64952941308393
  0
LINE
  8
_0-0_
  6
CONTINUOUS
 62
    7
 10
553.27262952741136
 20
164.47226329510556
 11
553.27262952741136
 21
154.47226329510553
  0
LINE
  8
_0-0_
  6
CONTINUOUS
 62
    7
 10
553.27262952741136
 20
174.47226329510556
 11
553.27262952741136
 21
184.47226329510556
  0
LINE
  8
_0-0_
  6
CONTINUOUS
 62
    7
 10
553.27262952741136
 20
164.47226329510556
 11
553.27262952741136
 21
174.47226329510556
  0
LINE
  8
_0-0_
  6
CONTINUOUS
 62
    7
 10
505.64792178717721
 20
164.34488350247863
 11
503.27262952741136
 21
164.47226329510556
  0
LINE
  8
_0-0_
  6
CONTINUOUS
 62
    7
 10
509.73990573934452
 20
164.10836452147884
 11
505.64792178717721
 21
164.34488350247863
  0
LINE
  8
_0-0_
  6
CONTINUOUS
 62
    7
 10
513.82259099654629
 20
163.8249048491337
 11
509.73990573934452
 21
164.10836452147884
  0
LINE
  8
_0-0_
  6
CONTINUOUS
 62
    7
 10
517.89009230880435
 20
163.46479518712317
 11
513.82259099654629
 21
163.8249048491337
  0
LINE
  8
_0-0_
  6
CONTINUOUS
 62
    7
 10
521.93652442614029
 20
162.99832623712745
 11
517.89009230880435
 21
163.46479518712317
  0
LINE
  8
_0-0_
  6
CONTINUOUS
 62
    7
 10
525.95600209857616
 20
162.39578870082658
 11
521.93652442614029
 21
162.99832623712745
  0
LINE
  8
_0-0_
  6
CONTINUOUS
 62
    7
 10
528.27262952741136
 20
161.97226329510556
 11
525.95600209857616
 21
162.39578870082658
  0
LINE
  8
_0-0_
  6
CONTINUOUS
 62
    7
 10
530.66674628063071
 20
161.4691321044429
 11
528.27262952741136
 21
161.97226329510556
  0
LINE
  8
_0-0_
  6
CONTINUOUS
 62
    7
 10
534.76723797347437
 20
160.46387269106668
 11
530.66674628063071
 21
161.4691321044429
  0
LINE
  8
_0-0_
  6
CONTINUOUS
 62
    7
 10
538.83864021588135
 20
159.31176698157901
 11
534.76723797347437
 21
160.46387269106668
  0
LINE
  8
_0-0_
  6
CONTINUOUS
 62
    7
 10
542.88730441624375
 20
158.04487748604779
 11
538.83864021588135
 21
159.31176698157901
  0
LINE
  8
_0-0_
  6
CONTINUOUS
 62
    7
 10
546.91958198295401
 20
156.69526671454119
 11
542.88730441624375
 21
158.04487748604779
  0
LINE
  8
_0-0_
  6
CONTINUOUS
 62
    7
 10
550.94182432440436
 20
155.29499717712715
 11
546.91958198295401
 21
156.69526671454119
  0
LINE
  8
_0-0_
  6
CONTINUOUS
 62
    7
 10
553.27262952741136
 20
154.47226329510553
 11
550.94182432440436
 21
155.29499717712715
  0
LINE
  8
_0-0_
  6
CONTINUOUS
 62
    7
 10
503.27262952741136
 20
201.29056212737731
 11
503.27262952741136
 21
197.79056212737731
  0
LINE
  8
_0-0_
  6
CONTINUOUS
 62
    7
 10
528.27262952741136
 20
201.29056212737731
 11
503.27262952741136
 21
201.29056212737731
  0
LINE
  8
_0-0_
  6
CONTINUOUS
 62
    7
 10
528.27262952741136
 20
204.29056212737731
 11
528.27262952741136
 21
201.29056212737731
  0
LINE
  8
_0-0_
  6
CONTINUOUS
 62
    7
 10
503.27262952741136
 20
204.29056212737731
 11
528.27262952741136
 21
204.29056212737731
  0
LINE
  8
_0-0_
  6
CONTINUOUS
 62
    7
 10
503.27262952741136
 20
207.79056212737731
 11
503.27262952741136
 21
204.29056212737731
  0
LINE
  8
_0-0_
  6
CONTINUOUS
 62
    7
 10
505.64792178717721
 20
207.91794192000423
 11
503.27262952741136
 21
207.79056212737731
  0
LINE
  8
_0-0_
  6
CONTINUOUS
 62
    7
 10
509.73990573934452
 20
208.15446090100397
 11
505.64792178717721
 21
207.91794192000423
  0
LINE
  8
_0-0_
  6
CONTINUOUS
 62
    7
 10
513.82259099654629
 20
208.43792057334917
 11
509.73990573934452
 21
208.15446090100397
  0
LINE
  8
_0-0_
  6
CONTINUOUS
 62
    7
 10
517.89009230880435
 20
208.79803023535964
 11
513.82259099654629
 21
208.43792057334917
  0
LINE
  8
_0-0_
  6
CONTINUOUS
 62
    7
 10
521.93652442614029
 20
209.26449918535541
 11
517.89009230880435
 21
208.79803023535964
  0
LINE
  8
_0-0_
  6
CONTINUOUS
 62
    7
 10
525.95600209857616
 20
209.86703672165623
 11
521.93652442614029
 21
209.26449918535541
  0
LINE
  8
_0-0_
  6
CONTINUOUS
 62
    7
 10
528.27262952741136
 20
210.29056212737731
 11
525.95600209857616
 21
209.86703672165623
  0
LINE
  8
_0-0_
  6
CONTINUOUS
 62
    7
 10
530.66674628063071
 20
210.79369331803991
 11
528.27262952741136
 21
210.29056212737731
  0
LINE
  8
_0-0_
  6
CONTINUOUS
 62
    7
 10
534.76723797347437
 20
211.79895273141613
 11
530.66674628063071
 21
210.79369331803991
  0
LINE
  8
_0-0_
  6
CONTINUOUS
 62
    7
 10
538.83864021588135
 20
212.95105844090386
 11
534.76723797347437
 21
211.79895273141613
  0
LINE
  8
_0-0_
  6
CONTINUOUS
 62
    7
 10
542.88730441624375
 20
214.21794793643499
 11
538.83864021588135
 21
212.95105844090386
  0
LINE
  8
_0-0_
  6
CONTINUOUS
 62
    7
 10
546.91958198295401
 20
215.5675587079416
 11
542.88730441624375
 21
214.21794793643499
  0
LINE
  8
_0-0_
  6
CONTINUOUS
 62
    7
 10
550.94182432440436
 20
216.96782824535569
 11
546.91958198295401
 21
215.5675587079416
  0
LINE
  8
_0-0_
  6
CONTINUOUS
 62
    7
 10
553.27262952741136
 20
217.79056212737731
 11
550.94182432440436
 21
216.96782824535569
  0
LINE
  8
_0-0_
  6
CONTINUOUS
 62
    7
 10
553.27262952741136
 20
197.79056212737731
 11
553.27262952741136
 21
187.79056212737731
  0
LINE
  8
_0-0_
  6
CONTINUOUS
 62
    7
 10
553.27262952741136
 20
207.79056212737731
 11
553.27262952741136
 21
217.79056212737731
  0
LINE
  8
_0-0_
  6
CONTINUOUS
 62
    7
 10
553.27262952741136
 20
197.79056212737731
 11
553.27262952741136
 21
207.79056212737731
  0
LINE
  8
_0-0_
  6
CONTINUOUS
 62
    7
 10
505.64792178717721
 20
197.66318233475038
 11
503.27262952741136
 21
197.79056212737731
  0
LINE
  8
_0-0_
  6
CONTINUOUS
 62
    7
 10
509.73990573934452
 20
197.42666335375059
 11
505.64792178717721
 21
197.66318233475038
  0
LINE
  8
_0-0_
  6
CONTINUOUS
 62
    7
 10
513.82259099654629
 20
197.14320368140545
 11
509.73990573934452
 21
197.42666335375059
  0
LINE
  8
_0-0_
  6
CONTINUOUS
 62
    7
 10
517.89009230880435
 20
196.78309401939492
 11
513.82259099654629
 21
197.14320368140545
  0
LINE
  8
_0-0_
  6
CONTINUOUS
 62
    7
 10
521.93652442614029
 20
196.3166250693992
 11
517.89009230880435
 21
196.78309401939492
  0
LINE
  8
_0-0_
  6
CONTINUOUS
 62
    7
 10
525.95600209857616
 20
195.71408753309833
 11
521.93652442614029
 21
196.3166250693992
  0
LINE
  8
_0-0_
  6
CONTINUOUS
 62
    7
 10
528.27262952741136
 20
195.29056212737731
 11
525.95600209857616
 21
195.71408753309833
  0
LINE
  8
_0-0_
  6
CONTINUOUS
 62
    7
 10
530.66674628063071
 20
194.78743093671465
 11
528.27262952741136
 21
195.29056212737731
  0
LINE
  8
_0-0_
  6
CONTINUOUS
 62
    7
 10
534.76723797347437
 20
193.78217152333843
 11
530.66674628063071
 21
194.78743093671465
  0
LINE
  8
_0-0_
  6
CONTINUOUS
 62
    7
 10
538.83864021588135
 20
192.63006581385076
 11
534.76723797347437
 21
193.78217152333843
  0
LINE
  8
_0-0_
  6
CONTINUOUS
 62
    7
 10
542.88730441624375
 20
191.36317631831957
 11
538.83864021588135
 21
192.63006581385076
  0
LINE
  8
_0-0_
  6
CONTINUOUS
 62
    7
 10
546.91958198295401
 20
190.01356554681296
 11
542.88730441624375
 21
191.36317631831957
  0
LINE
  8
_0-0_
  6
CONTINUOUS
 62
    7
 10
550.94182432440436
 20
188.61329600939893
 11
546.91958198295401
 21
190.01356554681296
  0
LINE
  8
_0-0_
  6
CONTINUOUS
 62
    7
 10
553.27262952741136
 20
187.79056212737731
 11
550.94182432440436
 21
188.61329600939893
  0
LINE
  8
_0-0_
  6
CONTINUOUS
 62
    7
 10
348.21956823193107
 20
181.71591106229499
 11
349.2802284037109
 21
180.65525089051521
  0
LINE
  8
_0-0_
  6
CONTINUOUS
 62
    7
 10
350.34088857549068
 20
183.83723140585465
 11
351.40154874727051
 21
182.77657123407487
  0
LINE
  8
_0-0_
  6
CONTINUOUS
 62
    7
 10
363.77591741803513
 20
170.40220256331025
 11
362.7152572462553
 21
171.46286273509008
  0
LINE
  8
_0-0_
  6
CONTINUOUS
 62
    7
 10
360.59393690269564
 20
169.34154239153045
 11
361.65459707447547
 21
168.28088221975062
  0
LINE
  8
_0-0_
  6
CONTINUOUS
 62
    7
 10
348.21956823193107
 20
170.40220256331028
 11
349.2802284037109
 21
171.46286273509011
  0
LINE
  8
_0-0_
  6
CONTINUOUS
 62
    7
 10
350.34088857549068
 20
168.28088221975065
 11
351.40154874727051
 21
169.34154239153045
  0
LINE
  8
_0-0_
  6
CONTINUOUS
 62
    7
 10
362.61493068948612
 20
180.55492433374604
 11
363.77591741803507
 21
181.71591106229502
  0
LINE
  8
_0-0_
  6
CONTINUOUS
 62
    7
 10
360.59393690269564
 20
182.77657123407485
 11
361.65459707447547
 21
183.83723140585468
  0
ARC
  8
_0-0_
  6
CONTINUOUS
 62
    7
 10
349.2802284037109
 20
169.34154239153045
 40
1.5
 50
135
 51
315
  0
ARC
  8
_0-0_
  6
CONTINUOUS
 62
    7
 10
350.34088857549068
 20
170.40220256331028
 40
1.5
 50
315
 51
135
  0
ARC
  8
_0-0_
  6
CONTINUOUS
 62
    7
 10
361.65459707447547
 20
181.71591106229502
 40
1.5
 50
135
 51
309.59653856256983
  0
ARC
  8
_0-0_
  6
CONTINUOUS
 62
    7
 10
362.7152572462553
 20
182.77657123407485
 40
1.5
 50
315
 51
135
  0
ARC
  8
_0-0_
  6
CONTINUOUS
 62
    7
 10
361.65459707447547
 20
170.40220256331025
 40
1.5
 50
45
 51
225
  0
ARC
  8
_0-0_
  6
CONTINUOUS
 62
    7
 10
362.7152572462553
 20
169.34154239153042
 40
1.5000000000000002
 50
225
 51
45
  0
ARC
  8
_0-0_
  6
CONTINUOUS
 62
    7
 10
350.34088857549068
 20
181.71591106229504
 40
1.5
 50
225.00000000000054
 51
45.000000000000532
  0
ARC
  8
_0-0_
  6
CONTINUOUS
 62
    7
 10
349.2802284037109
 20
182.77657123407482
 40
1.5000000000000002
 50
45.000000000000547
 51
225.00000000000056
  0
LINE
  8
_0-0_
  6
CONTINUOUS
 62
    7
 10
225.2195682319311
 20
304.71591106229499
 11
226.28022840371093
 21
303.65525089051521
  0
LINE
  8
_0-0_
  6
CONTINUOUS
 62
    7
 10
227.3408885754907
 20
306.83723140585465
 11
228.40154874727053
 21
305.77657123407487
  0
LINE
  8
_0-0_
  6
CONTINUOUS
 62
    7
 10
240.7759174180351
 20
293.40220256331025
 11
239.71525724625527
 21
294.46286273509008
  0
LINE
  8
_0-0_
  6
CONTINUOUS
 62
    7
 10
237.59393690269567
 20
292.34154239153048
 11
238.6545970744755
 21
291.28088221975065
  0
LINE
  8
_0-0_
  6
CONTINUOUS
 62
    7
 10
225.2195682319311
 20
293.40220256331031
 11
226.28022840371087
 21
294.46286273509014
  0
LINE
  8
_0-0_
  6
CONTINUOUS
 62
    7
 10
227.3408885754907
 20
291.28088221975065
 11
228.40154874727053
 21
292.34154239153048
  0
LINE
  8
_0-0_
  6
CONTINUOUS
 62
    7
 10
239.61493068948615
 20
303.55492433374604
 11
240.7759174180351
 21
304.71591106229504
  0
LINE
  8
_0-0_
  6
CONTINUOUS
 62
    7
 10
237.59393690269567
 20
305.77657123407487
 11
238.6545970744755
 21
306.8372314058547
  0
ARC
  8
_0-0_
  6
CONTINUOUS
 62
    7
 10
226.28022840371087
 20
292.34154239153048
 40
1.5
 50
135
 51
315
  0
ARC
  8
_0-0_
  6
CONTINUOUS
 62
    7
 10
227.3408885754907
 20
293.40220256331031
 40
1.5
 50
315
 51
135
  0
ARC
  8
_0-0_
  6
CONTINUOUS
 62
    7
 10
238.6545970744755
 20
304.71591106229504
 40
1.5
 50
135
 51
309.59653856256983
  0
ARC
  8
_0-0_
  6
CONTINUOUS
 62
    7
 10
239.71525724625527
 20
305.77657123407487
 40
1.5
 50
315
 51
135
  0
ARC
  8
_0-0_
  6
CONTINUOUS
 62
    7
 10
238.6545970744755
 20
293.40220256331025
 40
1.5
 50
45
 51
225
  0
ARC
  8
_0-0_
  6
CONTINUOUS
 62
    7
 10
239.71525724625533
 20
292.34154239153042
 40
1.5000000000000002
 50
225
 51
45
  0
ARC
  8
_0-0_
  6
CONTINUOUS
 62
    7
 10
227.3408885754907
 20
304.71591106229504
 40
1.5
 50
225.00000000000054
 51
45.000000000000532
  0
ARC
  8
_0-0_
  6
CONTINUOUS
 62
    7
 10
226.28022840371093
 20
305.77657123407482
 40
1.5000000000000002
 50
45.000000000000547
 51
225.00000000000056
  0
LINE
  8
_0-0_
  6
CONTINUOUS
 62
    7
 10
348.21956823193113
 20
427.71591106229499
 11
349.2802284037109
 21
426.65525089051521
  0
LINE
  8
_0-0_
  6
CONTINUOUS
 62
    7
 10
350.34088857549073
 20
429.83723140585465
 11
351.40154874727056
 21
428.77657123407487
  0
LINE
  8
_0-0_
  6
CONTINUOUS
 62
    7
 10
363.77591741803513
 20
416.40220256331025
 11
362.7152572462553
 21
417.46286273509008
  0
LINE
  8
_0-0_
  6
CONTINUOUS
 62
    7
 10
360.5939369026957
 20
415.34154239153042
 11
361.65459707447553
 21
414.28088221975059
  0
LINE
  8
_0-0_
  6
CONTINUOUS
 62
    7
 10
348.21956823193113
 20
416.40220256331025
 11
349.2802284037109
 21
417.46286273509008
  0
LINE
  8
_0-0_
  6
CONTINUOUS
 62
    7
 10
350.34088857549073
 20
414.28088221975065
 11
351.40154874727056
 21
415.34154239153042
  0
LINE
  8
_0-0_
  6
CONTINUOUS
 62
    7
 10
362.61493068948618
 20
426.55492433374604
 11
363.77591741803513
 21
427.71591106229499
  0
LINE
  8
_0-0_
  6
CONTINUOUS
 62
    7
 10
360.5939369026957
 20
428.77657123407482
 11
361.65459707447553
 21
429.83723140585465
  0
ARC
  8
_0-0_
  6
CONTINUOUS
 62
    7
 10
349.2802284037109
 20
415.34154239153042
 40
1.5
 50
135
 51
315
  0
ARC
  8
_0-0_
  6
CONTINUOUS
 62
    7
 10
350.34088857549073
 20
416.40220256331025
 40
1.5
 50
315
 51
135
  0
ARC
  8
_0-0_
  6
CONTINUOUS
 62
    7
 10
361.65459707447553
 20
427.71591106229499
 40
1.5
 50
135
 51
309.59653856256983
  0
ARC
  8
_0-0_
  6
CONTINUOUS
 62
    7
 10
362.7152572462553
 20
428.77657123407482
 40
1.5
 50
315
 51
135
  0
ARC
  8
_0-0_
  6
CONTINUOUS
 62
    7
 10
361.65459707447553
 20
416.40220256331025
 40
1.5
 50
45
 51
225
  0
ARC
  8
_0-0_
  6
CONTINUOUS
 62
    7
 10
362.71525724625536
 20
415.34154239153042
 40
1.5000000000000002
 50
225
 51
45
  0
ARC
  8
_0-0_
  6
CONTINUOUS
 62
    7
 10
350.34088857549073
 20
427.71591106229504
 40
1.5
 50
225.00000000000054
 51
45.000000000000532
  0
ARC
  8
_0-0_
  6
CONTINUOUS
 62
    7
 10
349.2802284037109
 20
428.77657123407482
 40
1.5000000000000002
 50
45.000000000000547
 51
225.00000000000056
  0
LINE
  8
_0-0_
  6
CONTINUOUS
 62
    7
 10
471.21956823193113
 20
304.71591106229499
 11
472.2802284037109
 21
303.65525089051521
  0
LINE
  8
_0-0_
  6
CONTINUOUS
 62
    7
 10
473.34088857549073
 20
306.83723140585465
 11
474.40154874727056
 21
305.77657123407487
  0
LINE
  8
_0-0_
  6
CONTINUOUS
 62
    7
 10
486.77591741803513
 20
293.40220256331025
 11
485.7152572462553
 21
294.46286273509008
  0
LINE
  8
_0-0_
  6
CONTINUOUS
 62
    7
 10
483.59393690269564
 20
292.34154239153048
 11
484.65459707447553
 21
291.28088221975065
  0
LINE
  8
_0-0_
  6
CONTINUOUS
 62
    7
 10
471.21956823193113
 20
293.40220256331031
 11
472.2802284037109
 21
294.46286273509014
  0
LINE
  8
_0-0_
  6
CONTINUOUS
 62
    7
 10
473.34088857549073
 20
291.28088221975065
 11
474.40154874727056
 21
292.34154239153048
  0
LINE
  8
_0-0_
  6
CONTINUOUS
 62
    7
 10
485.61493068948618
 20
303.55492433374604
 11
486.77591741803507
 21
304.71591106229504
  0
LINE
  8
_0-0_
  6
CONTINUOUS
 62
    7
 10
483.59393690269564
 20
305.77657123407487
 11
484.65459707447553
 21
306.8372314058547
  0
ARC
  8
_0-0_
  6
CONTINUOUS
 62
    7
 10
472.2802284037109
 20
292.34154239153048
 40
1.5
 50
135
 51
315
  0
ARC
  8
_0-0_
  6
CONTINUOUS
 62
    7
 10
473.34088857549073
 20
293.40220256331031
 40
1.5
 50
315
 51
135
  0
ARC
  8
_0-0_
  6
CONTINUOUS
 62
    7
 10
484.65459707447553
 20
304.71591106229504
 40
1.5
 50
135
 51
309.59653856256983
  0
ARC
  8
_0-0_
  6
CONTINUOUS
 62
    7
 10
485.7152572462553
 20
305.77657123407487
 40
1.5
 50
315
 51
135
  0
ARC
  8
_0-0_
  6
CONTINUOUS
 62
    7
 10
484.65459707447553
 20
293.40220256331025
 40
1.5
 50
45
 51
225
  0
ARC
  8
_0-0_
  6
CONTINUOUS
 62
    7
 10
485.7152572462553
 20
292.34154239153042
 40
1.5000000000000002
 50
225
 51
45
  0
ARC
  8
_0-0_
  6
CONTINUOUS
 62
    7
 10
473.34088857549073
 20
304.71591106229504
 40
1.5
 50
225.00000000000054
 51
45.000000000000532
  0
ARC
  8
_0-0_
  6
CONTINUOUS
 62
    7
 10
472.2802284037109
 20
305.77657123407482
 40
1.5000000000000002
 50
45.000000000000547
 51
225.00000000000056
  0
ARC
  8
_0-0_
  6
CONTINUOUS
 62
    7
 10
232.9977428249831
 20
299.05905681280268
 40
90
 50
59.899289548390441
 51
300.10071045160958
  0
ARC
  8
_0-0_
  6
CONTINUOUS
 62
    7
 10
355.9977428249831
 20
422.05905681280268
 40
90
 50
329.89928954839041
 51
210.10071045160955
  0
ARC
  8
_0-0_
  6
CONTINUOUS
 62
    7
 10
-214.50129114529295
 20
299.05905681280268
 40
90
 50
59.899289548390399
 51
300.10071045160964
  0
ARC
  8
_0-0_
  6
CONTINUOUS
 62
    7
 10
-91.501291145292952
 20
422.05905681280268
 40
90
 50
329.89928954839041
 51
210.10071045160958
  0
ARC
  8
_0-0_
  6
CONTINUOUS
 62
    7
 10
31.498708854707047
 20
299.05905681280268
 40
90
 50
239.89928954839035
 51
120.1007104516096
  0
ARC
  8
_0-0_
  6
CONTINUOUS
 62
    7
 10
-91.501291145292952
 20
176.0590568128027
 40
90
 50
149.89928954839038
 51
30.100710451609643
  0
CIRCLE
  8
_0-0_
  6
CONTINUOUS
 62
    7
 10
-153.00129114529295
 20
237.55905681280268
 40
1.5
  0
CIRCLE
  8
_0-0_
  6
CONTINUOUS
 62
    7
 10
-30.001291145292952
 20
237.55905681280273
 40
1.5
  0
CIRCLE
  8
_0-0_
  6
CONTINUOUS
 62
    7
 10
-153.00129114529283
 20
360.55905681280279
 40
1.5
  0
CIRCLE
  8
_0-0_
  6
CONTINUOUS
 62
    7
 10
-31.397214744436496
 20
482.16313321365913
 40
1.5
  0
CIRCLE
  8
_0-0_
  6
CONTINUOUS
 62
    7
 10
-151.60536754614952
 20
482.16313321365902
 40
1.5
  0
CIRCLE
  8
_0-0_
  6
CONTINUOUS
 62
    7
 10
91.60278525556356
 20
359.16313321365919
 40
1.5
  0
CIRCLE
  8
_0-0_
  6
CONTINUOUS
 62
    7
 10
91.602785255563674
 20
238.95498041194613
 40
1.5
  0
CIRCLE
  8
_0-0_
  6
CONTINUOUS
 62
    7
 10
-31.397214744436496
 20
115.95498041194622
 40
1.5
  0
CIRCLE
  8
_0-0_
  6
CONTINUOUS
 62
    7
 10
-151.60536754614952
 20
115.95498041194622
 40
1.5
  0
CIRCLE
  8
_0-0_
  6
CONTINUOUS
 62
    7
 10
-274.60536754614952
 20
359.16313321365925
 40
1.5
  0
CIRCLE
  8
_0-0_
  6
CONTINUOUS
 62
    7
 10
-274.60536754614952
 20
238.95498041194613
 40
1.5
  0
CIRCLE
  8
_0-0_
  6
CONTINUOUS
 62
    7
 10
-30.001291145293009
 20
360.55905681280268
 40
1.5
  0
ARC
  8
_0-0_
  6
CONTINUOUS
 62
    7
 10
-214.50129114529295
 20
299.05905681280268
 40
79.774139626513402
 50
37.798806141170423
 51
37.819244218541712
  0
ARC
  8
_0-0_
  6
CONTINUOUS
 62
    7
 10
-91.501291145292952
 20
422.05905681280268
 40
80
 50
314.99999999999994
 51
224.99999999999994
  0
ARC
  8
_0-0_
  6
CONTINUOUS
 62
    7
 10
-30.001291145293009
 20
360.55905681280268
 40
6.9741340859452618
 50
135
 51
315.00000000000005
  0
ARC
  8
_0-0_
  6
CONTINUOUS
 62
    7
 10
31.498708854707047
 20
299.05905681280268
 40
80
 50
224.99999999999997
 51
135.00000000000002
  0
ARC
  8
_0-0_
  6
CONTINUOUS
 62
    7
 10
-30.001291145292952
 20
237.55905681280273
 40
6.9741340859452716
 50
45.000000000000063
 51
225.00000000000076
  0
ARC
  8
_0-0_
  6
CONTINUOUS
 62
    7
 10
-91.501291145292952
 20
176.0590568128027
 40
80
 50
135
 51
44.999999999999943
  0
ARC
  8
_0-0_
  6
CONTINUOUS
 62
    7
 10
-153.00129114529295
 20
237.55905681280268
 40
6.9741340859453302
 50
315.00000000000011
 51
135.00000000000008
  0
ARC
  8
_0-0_
  6
CONTINUOUS
 62
    7
 10
-214.50129114529295
 20
299.05905681280268
 40
80
 50
44.999999999999985
 51
315
  0
ARC
  8
_0-0_
  6
CONTINUOUS
 62
    7
 10
-153.00129114529283
 20
360.55905681280279
 40
6.9741340859451419
 50
224.9999999999996
 51
45.000000000000994
  0
ARC
  8
_0-0_
  6
CONTINUOUS
 62
    7
 10
338.37842915622059
 20
333.29076412987586
 40
0.5
 50
297.23521623376427
 51
78.77346993926146
  0
ARC
  8
_0-0_
  6
CONTINUOUS
 62
    7
 10
355.9977428249831
 20
422.05905681280268
 40
90
 50
241.04598645662491
 51
258.77346993926238
  0
ARC
  8
_0-0_
  6
CONTINUOUS
 62
    7
 10
232.9977428249831
 20
299.05905681280268
 40
90
 50
11.226530060737584
 51
28.954013543375086
  0
ARC
  8
_0-0_
  6
CONTINUOUS
 62
    7
 10
355.9977428249831
 20
299.05905681280268
 40
38
 50
117.2352162337625
 51
152.76478376623748
  0
ARC
  8
_0-0_
  6
CONTINUOUS
 62
    7
 10
312.18601577629186
 20
342.87078386149391
 40
0.5
 50
61.045986456624497
 51
208.95401354337406
  0
ARC
  8
_0-0_
  6
CONTINUOUS
 62
    7
 10
321.76603550790991
 20
316.67837048156513
 40
0.5
 50
191.22653006073772
 51
332.76478376623646
  0
ARC
  8
_0-0_
  6
CONTINUOUS
 62
    7
 10
373.61705649374545
 20
264.8273494957296
 40
0.5
 50
117.23521623376424
 51
258.77346993926147
  0
ARC
  8
_0-0_
  6
CONTINUOUS
 62
    7
 10
355.99774282498299
 20
176.05905681280279
 40
90
 50
61.045986456624909
 51
78.773469939262398
  0
ARC
  8
_0-0_
  6
CONTINUOUS
 62
    7
 10
478.99774282498299
 20
299.05905681280273
 40
90
 50
191.22653006073758
 51
208.95401354337508
  0
ARC
  8
_0-0_
  6
CONTINUOUS
 62
    7
 10
355.99774282498299
 20
299.05905681280279
 40
38
 50
297.23521623376245
 51
332.76478376623742
  0
ARC
  8
_0-0_
  6
CONTINUOUS
 62
    7
 10
399.80946987367423
 20
255.24732976411152
 40
0.5
 50
241.04598645662451
 51
28.954013543374117
  0
ARC
  8
_0-0_
  6
CONTINUOUS
 62
    7
 10
390.22945014205618
 20
281.43974314404027
 40
0.5
 50
11.226530060737736
 51
152.76478376623646
  0
ARC
  8
_0-0_
  6
CONTINUOUS
 62
    7
 10
321.7660355079098
 20
281.43974314404005
 40
0.5
 50
27.235216233764266
 51
168.77346993926144
  0
ARC
  8
_0-0_
  6
CONTINUOUS
 62
    7
 10
232.99774282498293
 20
299.0590568128025
 40
90
 50
331.04598645662491
 51
348.77346993926238
  0
ARC
  8
_0-0_
  6
CONTINUOUS
 62
    7
 10
355.99774282498293
 20
176.0590568128025
 40
90
 50
101.22653006073758
 51
118.95401354337509
  0
ARC
  8
_0-0_
  6
CONTINUOUS
 62
    7
 10
355.99774282498293
 20
299.05905681280245
 40
38
 50
207.23521623376248
 51
242.76478376623748
  0
ARC
  8
_0-0_
  6
CONTINUOUS
 62
    7
 10
312.18601577629169
 20
255.24732976411127
 40
0.5
 50
151.04598645662449
 51
298.95401354337406
  0
ARC
  8
_0-0_
  6
CONTINUOUS
 62
    7
 10
338.37842915622047
 20
264.82734949572932
 40
0.5
 50
281.22653006073772
 51
62.764783766236455
  0
ARC
  8
_0-0_
  6
CONTINUOUS
 62
    7
 10
390.22945014205618
 20
316.67837048156513
 40
0.5
 50
207.23521623376424
 51
348.77346993926147
  0
ARC
  8
_0-0_
  6
CONTINUOUS
 62
    7
 10
478.99774282498299
 20
299.05905681280268
 40
90
 50
151.04598645662491
 51
168.77346993926241
  0
ARC
  8
_0-0_
  6
CONTINUOUS
 62
    7
 10
355.99774282498304
 20
422.05905681280262
 40
90
 50
281.22653006073755
 51
298.95401354337508
  0
ARC
  8
_0-0_
  6
CONTINUOUS
 62
    7
 10
355.99774282498304
 20
299.05905681280268
 40
38
 50
27.2352162337625
 51
62.764783766237478
  0
ARC
  8
_0-0_
  6
CONTINUOUS
 62
    7
 10
399.80946987367428
 20
342.87078386149391
 40
0.5
 50
331.04598645662451
 51
118.95401354337407
  0
ARC
  8
_0-0_
  6
CONTINUOUS
 62
    7
 10
373.6170564937455
 20
333.29076412987581
 40
0.5
 50
101.22653006073772
 51
242.76478376623646
  0
ENDSEC
  0
EOF
